# Blender v2.80 (sub 75) OBJ File: ''
# www.blender.org
mtllib A.mtl
o Text_Text.003
v 10.613999 -1.438868 -8.401359
v 1.076964 -1.411899 13.465172
v -1.096940 -1.446929 13.714741
v 0.117843 -1.541823 8.651829
v -10.723022 -1.422353 -8.315217
v 3.349808 -1.455186 0.918395
v -3.557648 -1.349041 0.793362
v 4.602814 -1.435677 -1.936769
v -4.638000 -1.456874 -2.007372
v 7.527726 -1.398635 -8.125236
v -8.002379 -1.347194 -7.757138
v 11.455613 1.546650 -8.957026
v -0.831132 1.391521 13.305634
v 0.849944 1.365536 13.121349
v 0.122192 1.322913 8.972927
v -10.805022 1.434533 -8.368505
v 3.546051 1.349716 0.787104
v -3.239227 1.528234 1.000120
v 4.857071 1.319536 -1.551397
v -4.485489 1.529943 -2.243840
v 7.006654 1.511503 -8.914982
v -7.747833 1.404393 -8.151795
vn 0.0171 -0.9998 0.0087
vn 0.0658 -0.9972 0.0345
vn -0.0293 -0.9995 0.0117
vn -0.0261 -0.9994 -0.0221
vn 0.1014 -0.9923 -0.0717
vn -0.0147 -0.9998 -0.0132
vn -0.0151 -0.9998 -0.0135
vn -0.0145 -0.9998 -0.0130
vn 0.0020 -0.9993 0.0377
vn -0.0756 -0.9949 0.0675
vn -0.0142 -0.9998 -0.0127
vn 0.0358 -0.9986 -0.0400
vn 0.0173 0.9997 0.0165
vn -0.0685 0.9972 -0.0309
vn 0.0262 0.9996 -0.0101
vn -0.0430 0.9990 -0.0147
vn -0.0921 0.9937 0.0644
vn -0.1303 0.9878 -0.0858
vn 0.0236 0.9997 -0.0070
vn 0.0256 0.9997 -0.0006
vn 0.0264 0.9997 0.0019
vn 0.0231 0.9997 -0.0084
vn -0.0249 0.9996 0.0101
vn -0.0077 0.9997 0.0238
vn 0.0118 0.9995 -0.0278
vn 0.9086 -0.0319 0.4164
vn 0.1106 0.1313 0.9852
vn -0.9106 0.0626 0.4085
vn -0.9218 0.0455 -0.3851
vn 0.9136 -0.0140 -0.4064
vn 0.0061 -0.0138 0.9999
vn 0.0412 0.0230 -0.9989
vn -0.0413 -0.2202 -0.9746
vn -0.9339 -0.0690 -0.3509
vn 0.8636 -0.1152 -0.4908
vn 0.1331 -0.0830 -0.9876
usemtl None
s 1
f 1//1 2//1 3//1
f 1//2 3//2 4//2
f 4//3 3//3 5//3
f 1//4 4//4 6//4
f 7//5 4//5 5//5
f 1//6 6//7 8//8
f 8//8 6//7 7//7
f 8//9 7//9 9//9
f 9//10 7//10 5//10
f 1//6 8//8 10//11
f 11//12 9//12 5//12
f 12//13 13//13 14//13
f 12//14 15//14 13//14
f 15//15 16//15 13//15
f 12//16 17//16 15//16
f 18//17 16//17 15//17
f 12//18 19//18 17//18
f 19//19 18//20 17//21
f 19//19 20//22 18//20
f 20//23 16//23 18//23
f 12//24 21//24 19//24
f 22//25 16//25 20//25
f 14//26 2//26 1//26 12//26
f 13//27 3//27 2//27 14//27
f 13//28 16//28 5//28 3//28
f 15//29 17//29 6//29 4//29
f 15//30 4//30 7//30 18//30
f 17//31 18//31 7//31 6//31
f 19//32 8//32 9//32 20//32
f 12//33 1//33 10//33 21//33
f 19//34 21//34 10//34 8//34
f 20//35 9//35 11//35 22//35
f 16//36 22//36 11//36 5//36
