# Blender v2.80 (sub 75) OBJ File: ''
# www.blender.org
mtllib R.mtl
o Text_Text.002
v 7.534504 -1.417974 -11.088887
v 7.196701 -1.365386 9.843926
v 5.218894 -1.216450 8.314897
v 1.545875 -1.291474 9.334785
v -1.590950 -1.411692 9.211542
v -4.014710 -1.418968 7.106662
v 2.577896 -1.258743 9.090469
v 4.480017 -1.476117 0.819917
v -1.125779 -1.383359 7.460799
v -2.692407 -1.295804 3.028187
v -4.023141 -1.340612 3.570659
v -3.098924 -1.301324 1.848706
v -0.734415 -1.302944 0.733026
v 4.499830 -1.552261 -2.085057
v -2.352114 -1.354098 0.458203
v -0.968928 -1.358534 -0.809029
v -1.996241 -1.394722 -2.218212
v 1.732740 -1.497768 -2.367705
v 5.323323 -1.365241 -10.750125
v -4.987880 -1.345292 -6.540093
v -2.655078 -1.386134 -6.076628
v -5.076146 -1.523704 -11.817866
v -9.531513 -1.583716 -11.358879
v 7.788303 1.398107 -11.342686
v 4.497062 1.494187 7.593064
v 8.488770 1.507148 11.135992
v -1.305100 1.443954 10.326303
v -3.594582 1.361266 7.760563
v 1.858810 1.389534 7.903816
v 4.704969 1.397089 0.908655
v -1.148850 1.336985 7.064098
v -3.930810 1.322008 6.645752
v -3.982004 1.266249 3.707244
v -2.605096 1.257134 3.143464
v -2.830271 1.218688 1.686976
v 0.388998 1.326764 0.557325
v 4.415586 1.477263 -2.025321
v -1.298494 1.338349 -0.600548
v -2.000979 1.305933 -2.366624
v 5.007946 1.354959 -11.065501
v 1.351667 1.461978 -2.797858
v -4.357463 1.347996 -4.998961
v -2.162753 1.381962 -6.091963
v -4.873135 1.515565 -12.189732
v -8.090427 1.493853 -9.098702
v -9.415562 1.445346 -11.564643
vn -0.0761 -0.9971 0.0013
vn -0.0049 -0.9959 -0.0907
vn 0.0360 -0.9978 0.0563
vn 0.0253 -0.9994 -0.0256
vn -0.0201 0.9997 -0.0139
vn 0.1220 -0.9922 0.0263
vn 0.1106 -0.9936 0.0235
vn 0.1201 -0.9924 0.0259
vn 0.0041 -0.9977 0.0670
vn 0.0160 -0.9996 -0.0250
vn 0.0154 -0.9996 -0.0252
vn 0.0225 -0.9995 -0.0229
vn 0.0246 -0.9995 -0.0222
vn 0.0312 -0.9995 -0.0061
vn 0.0013 -1.0000 0.0042
vn 0.0320 0.9973 0.0664
vn 0.1235 -0.9920 0.0268
vn -0.0188 -0.9994 0.0275
vn -0.0195 -0.9995 0.0261
vn -0.0194 -0.9995 0.0263
vn -0.0185 -0.9994 0.0280
vn -0.0463 -0.9978 -0.0471
vn -0.0252 -0.9983 0.0534
vn -0.0251 -0.9987 0.0440
vn -0.0252 -0.9983 0.0525
vn -0.0253 -0.9981 0.0557
vn -0.0275 -0.9993 -0.0242
vn -0.0273 -0.9996 0.0075
vn -0.0151 -0.9998 -0.0123
vn -0.0243 -0.9991 0.0342
vn 0.0169 -0.9993 0.0335
vn 0.0011 1.0000 -0.0049
vn -0.0067 1.0000 0.0038
vn -0.0064 1.0000 0.0035
vn -0.0068 1.0000 0.0040
vn -0.0168 0.9997 -0.0172
vn 0.0112 -0.9725 -0.2328
vn -0.0661 0.9977 -0.0165
vn -0.0010 0.9993 -0.0384
vn -0.0030 0.9990 -0.0454
vn -0.0039 0.9988 -0.0485
vn -0.0001 0.9994 -0.0352
vn -0.0017 0.9998 -0.0195
vn -0.0041 0.9997 -0.0238
vn -0.0025 0.9998 -0.0189
vn -0.0014 0.9998 -0.0201
vn -0.0039 0.9997 -0.0258
vn -0.0406 0.9990 -0.0201
vn 0.0775 0.9968 0.0196
vn -0.0187 0.9994 0.0291
vn -0.0290 0.9995 0.0131
vn -0.0135 0.9990 0.0432
vn -0.0263 0.9996 -0.0079
vn -0.0170 0.9997 -0.0146
vn -0.0323 0.9936 0.1084
vn -0.0398 0.9979 0.0516
vn -0.0180 0.9998 -0.0051
vn -0.0037 0.9997 0.0236
vn 0.0146 0.9996 0.0222
vn -0.0169 0.9998 -0.0106
vn -0.8665 0.0606 -0.4954
vn 0.2686 -0.1368 -0.9535
vn -0.9993 0.0334 0.0168
vn 0.9426 -0.0172 -0.3335
vn -0.9999 0.0156 0.0027
vn -0.0228 -0.3616 0.9321
vn -0.7274 -0.2046 0.6550
vn -0.6387 -0.2235 0.7363
vn -0.7134 -0.1660 0.6808
vn -0.8808 0.0386 -0.4719
vn 0.2435 -0.1087 -0.9638
vn 0.6946 -0.1541 0.7027
vn -0.9957 -0.0841 0.0394
vn 0.3941 -0.2846 -0.8739
vn -0.1179 -0.0880 -0.9891
vn -0.9553 0.0772 0.2854
vn -0.8795 0.0657 0.4713
vn -0.0142 0.0727 0.9973
vn -0.7914 -0.0651 0.6078
vn 0.6449 -0.0280 -0.7638
vn 0.6800 -0.1249 -0.7225
vn -0.0807 -0.0245 0.9964
vn 0.9369 -0.0427 -0.3471
vn -0.8472 0.0924 -0.5232
vn 0.9653 -0.2610 -0.0071
vn -0.0784 -0.3946 0.9155
vn -0.6753 -0.0256 -0.7371
vn 0.9091 -0.1351 -0.3940
vn -0.8760 -0.0596 0.4785
vn 0.1020 0.0224 -0.9945
vn -0.1220 -0.1028 -0.9872
vn -0.9942 -0.0726 -0.0798
vn -0.7447 -0.0441 0.6659
vn -0.1771 -0.3721 -0.9111
usemtl None
s 1
f 1//1 2//1 3//1
f 3//2 2//2 4//2
f 3//3 4//3 5//3
f 3//4 5//4 6//4
f 3//5 6//5 7//5
f 1//6 3//7 8//8
f 9//9 7//9 6//9
f 10//10 9//11 6//12
f 10//10 6//12 11//13
f 10//14 11//14 12//14
f 13//15 10//15 12//15
f 8//16 13//16 12//16
f 1//6 8//8 14//17
f 14//18 8//19 12//20
f 14//18 12//20 15//21
f 14//22 15//22 16//22
f 14//23 16//24 17//25
f 14//23 17//25 18//26
f 1//27 14//27 19//27
f 18//28 17//28 20//28
f 21//29 18//29 20//29
f 22//30 21//30 20//30
f 22//31 20//31 23//31
f 24//32 25//33 26//34
f 25//33 27//35 26//34
f 25//36 28//36 27//36
f 25//37 29//37 28//37
f 24//38 30//38 25//38
f 31//39 28//40 29//41
f 31//39 32//42 28//40
f 31//43 33//44 32//45
f 34//46 33//44 31//43
f 34//46 35//47 33//44
f 36//48 35//48 34//48
f 24//49 37//49 30//49
f 37//50 36//50 30//50
f 37//51 35//51 36//51
f 37//52 38//52 35//52
f 37//53 39//53 38//53
f 24//54 40//54 37//54
f 41//55 39//55 37//55
f 41//56 42//56 39//56
f 43//57 42//57 41//57
f 44//58 42//58 43//58
f 44//59 45//59 42//59
f 44//60 46//60 45//60
f 12//61 33//61 35//61
f 9//62 31//62 29//62
f 6//63 32//63 33//63
f 10//64 34//64 9//64
f 6//65 33//65 11//65
f 4//66 27//66 5//66
f 20//67 42//67 45//67
f 5//68 27//68 6//68
f 20//69 45//69 23//69
f 11//70 33//70 12//70
f 18//71 41//71 37//71
f 34//72 10//72 13//72 36//72
f 30//73 8//73 3//73 25//73
f 7//74 9//74 29//74
f 46//75 44//75 22//75 23//75
f 6//76 28//76 32//76
f 23//77 45//77 46//77
f 13//78 8//78 36//78
f 39//79 42//79 20//79 17//79
f 18//80 21//80 41//80
f 21//81 43//81 41//81
f 8//82 30//82 36//82
f 9//83 34//83 31//83
f 35//84 38//84 15//84 12//84
f 24//85 26//85 2//85 1//85
f 27//86 4//86 2//86 26//86
f 16//87 15//87 38//87
f 44//88 43//88 21//88 22//88
f 39//89 17//89 16//89 38//89
f 14//90 18//90 37//90
f 24//91 1//91 19//91 40//91
f 37//92 40//92 19//92 14//92
f 6//93 27//93 28//93
f 29//94 25//94 3//94 7//94
