# Blender v2.81 (sub 16) OBJ File: 'bird.blend'
# www.blender.org
mtllib rightwing.mtl
o bird.002
v -15.511378 16.032597 -8.451921
v -15.433989 16.091986 -8.451907
v -18.236937 18.920443 -12.976224
v -18.249397 18.910879 -12.976226
v -12.791143 13.353153 -3.414303
v -12.632297 13.475054 -3.414277
v -9.982368 10.439070 0.892369
v -9.753294 10.614865 0.892406
v -6.987761 6.773419 3.039019
v -6.736401 6.966317 3.039060
v -3.920473 2.776238 4.250073
v -3.669112 2.969136 4.250115
v -15.356600 16.151375 -8.451894
v -18.224478 18.930006 -12.976222
v -12.473451 13.596955 -3.414251
v -9.524220 10.790659 0.892444
v -6.485040 7.159214 3.039101
v -3.417752 3.162033 4.250156
v -15.279211 16.210764 -8.451882
v -18.212017 18.939569 -12.976220
v -12.314604 13.718855 -3.414225
v -9.295146 10.966454 0.892481
v -6.233679 7.352111 3.039142
v -3.166391 3.354930 4.250197
v -15.201821 16.270153 -8.451869
v -18.199556 18.949129 -12.976218
v -12.155758 13.840756 -3.414199
v -9.066071 11.142248 0.892519
v -5.982319 7.545009 3.039184
v -2.915031 3.547827 4.250238
v -15.124432 16.329542 -8.451857
v -18.187096 18.958693 -12.976216
v -11.996912 13.962656 -3.414173
v -8.836997 11.318043 0.892556
v -5.730958 7.737906 3.039225
v -2.663670 3.740725 4.250280
v -3.511587 2.244024 1.457853
v -3.260226 2.436921 1.457894
v -3.102701 1.711808 -1.334368
v -2.851340 1.904705 -1.334327
v -2.693815 1.179593 -4.126589
v -2.442454 1.372490 -4.126546
v -2.284929 0.647377 -6.918809
v -2.033569 0.840274 -6.918768
v -1.876043 0.115162 -9.711030
v -1.624683 0.308059 -9.710989
v -3.008866 2.629818 1.457935
v -2.599980 2.097602 -1.334286
v -2.191094 1.565387 -4.126505
v -1.782208 1.033171 -6.918727
v -1.373322 0.500955 -9.710948
v -2.757505 2.822715 1.457976
v -2.348619 2.290499 -1.334245
v -1.939733 1.758284 -4.126464
v -1.530848 1.226069 -6.918686
v -1.121962 0.693853 -9.710906
v -2.506145 3.015612 1.458018
v -2.097259 2.483397 -1.334203
v -1.688373 1.951182 -4.126423
v -1.279487 1.418966 -6.918645
v -0.870601 0.886751 -9.710865
v -2.254784 3.208510 1.458059
v -1.845898 2.676294 -1.334162
v -1.437012 2.144079 -4.126382
v -1.028127 1.611863 -6.918604
v -0.619241 1.079648 -9.710824
v -4.943331 4.112342 -10.922085
v -4.691971 4.305239 -10.922044
v -8.280864 8.081385 -11.700169
v -8.065252 8.246848 -11.700134
v -11.881245 11.973343 -12.177231
v -11.740829 12.081100 -12.177208
v -15.467979 15.794889 -12.849685
v -15.407711 15.841140 -12.849675
v -18.853035 19.596262 -13.944719
v -18.850111 19.598505 -13.944718
v -4.440610 4.498137 -10.922003
v -7.849640 8.412312 -11.700099
v -11.600413 12.188857 -12.177185
v -15.347443 15.887391 -12.849665
v -18.847187 19.600748 -13.944718
v -4.189250 4.691034 -10.921962
v -7.634027 8.577775 -11.700064
v -11.459997 12.296615 -12.177162
v -15.287175 15.933640 -12.849656
v -18.844261 19.602995 -13.944717
v -3.937889 4.883931 -10.921921
v -7.418415 8.743237 -11.700028
v -11.319581 12.404372 -12.177139
v -15.226907 15.979891 -12.849647
v -18.841337 19.605238 -13.944717
v -3.686529 5.076828 -10.921879
v -7.202804 8.908702 -11.699993
v -11.179165 12.512129 -12.177116
v -15.166640 16.026140 -12.849636
v -18.838413 19.607481 -13.944716
v -18.716671 19.436735 -13.834235
v -18.712036 19.440294 -13.834235
v -18.587481 19.287626 -13.685298
v -18.581034 19.292570 -13.685297
v -18.466120 19.149752 -13.494698
v -18.457764 19.156164 -13.494695
v -18.353222 19.023916 -13.259336
v -18.342861 19.031866 -13.259334
v -18.707401 19.443850 -13.834234
v -18.574589 19.297518 -13.685295
v -18.449408 19.162577 -13.494694
v -18.332499 19.039820 -13.259331
v -18.702766 19.447409 -13.834233
v -18.568142 19.302465 -13.685294
v -18.441051 19.168989 -13.494692
v -18.322138 19.047770 -13.259330
v -18.698132 19.450964 -13.834232
v -18.561695 19.307413 -13.685293
v -18.432695 19.175402 -13.494691
v -18.311775 19.055719 -13.259328
v -18.693497 19.454519 -13.834232
v -18.555248 19.312361 -13.685292
v -18.424339 19.181814 -13.494690
v -18.301414 19.063673 -13.259326
v -15.103485 16.228966 -9.482270
v -11.801326 13.631587 -5.325102
v -8.486268 10.808199 -1.737816
v -5.322072 7.205689 0.247004
v -15.097499 16.148628 -10.436050
v -11.621657 13.320814 -7.157496
v -8.147016 10.311680 -4.314731
v -4.913186 6.673474 -2.545217
v -15.106219 16.088257 -11.314347
v -11.458018 13.030537 -8.910666
v -7.819719 9.829161 -6.835659
v -4.504301 6.141258 -5.337437
v -15.129365 16.047541 -12.118419
v -11.310498 12.760929 -10.584027
v -7.504837 9.361296 -9.298182
v -4.095415 5.609044 -8.129658
v -15.447411 15.803468 -12.118471
v -12.031161 12.207883 -10.584146
v -8.597080 8.523095 -9.298361
v -5.352217 4.644557 -8.129863
v -15.441191 15.831195 -11.314402
v -12.197200 12.463279 -8.910786
v -8.925797 8.980343 -6.835840
v -5.761103 5.176773 -5.337643
v -15.449606 15.878418 -10.436108
v -12.379283 12.739403 -7.157619
v -9.266569 9.452521 -4.314915
v -6.169989 5.708989 -2.545422
v -15.472920 15.945454 -9.482330
v -12.577305 13.036091 -5.325229
v -9.618923 9.938985 -1.738001
v -6.578875 6.241203 0.246798
vt 0.200000 0.000000
vt 0.200000 0.200000
vt 0.000000 0.200000
vt 0.000000 0.000000
vt 0.400000 0.000000
vt 0.400000 0.200000
vt 0.600000 0.000000
vt 0.600000 0.200000
vt 0.800000 0.000000
vt 0.800000 0.200000
vt 1.000000 0.000000
vt 1.000000 0.200000
vt 0.200000 0.400000
vt 0.000000 0.400000
vt 0.400000 0.400000
vt 0.600000 0.400000
vt 0.800000 0.400000
vt 1.000000 0.400000
vt 0.200000 0.600000
vt 0.000000 0.600000
vt 0.400000 0.600000
vt 0.600000 0.600000
vt 0.800000 0.600000
vt 1.000000 0.600000
vt 0.200000 0.800000
vt 0.000000 0.800000
vt 0.400000 0.800000
vt 0.600000 0.800000
vt 0.800000 0.800000
vt 1.000000 0.800000
vt 0.200000 1.000000
vt 0.000000 1.000000
vt 0.400000 1.000000
vt 0.600000 1.000000
vt 0.800000 1.000000
vt 1.000000 1.000000
vt 0.200000 0.000000
vt 0.200000 0.200000
vt 0.000000 0.200000
vt 0.000000 0.000000
vt 0.400000 0.000000
vt 0.400000 0.200000
vt 0.600000 0.000000
vt 0.600000 0.200000
vt 0.800000 0.000000
vt 0.800000 0.200000
vt 1.000000 0.000000
vt 1.000000 0.200000
vt 0.200000 0.400000
vt 0.000000 0.400000
vt 0.400000 0.400000
vt 0.600000 0.400000
vt 0.800000 0.400000
vt 1.000000 0.400000
vt 0.200000 0.600000
vt 0.000000 0.600000
vt 0.400000 0.600000
vt 0.600000 0.600000
vt 0.800000 0.600000
vt 1.000000 0.600000
vt 0.200000 0.800000
vt 0.000000 0.800000
vt 0.400000 0.800000
vt 0.600000 0.800000
vt 0.800000 0.800000
vt 1.000000 0.800000
vt 0.200000 1.000000
vt 0.000000 1.000000
vt 0.400000 1.000000
vt 0.600000 1.000000
vt 0.800000 1.000000
vt 1.000000 1.000000
vt 0.200000 0.000000
vt 0.200000 0.200000
vt 0.000000 0.200000
vt 0.000000 0.000000
vt 0.400000 0.000000
vt 0.400000 0.200000
vt 0.600000 0.000000
vt 0.600000 0.200000
vt 0.800000 0.000000
vt 0.800000 0.200000
vt 1.000000 0.000000
vt 1.000000 0.200000
vt 0.200000 0.400000
vt 0.000000 0.400000
vt 0.400000 0.400000
vt 0.600000 0.400000
vt 0.800000 0.400000
vt 1.000000 0.400000
vt 0.200000 0.600000
vt 0.000000 0.600000
vt 0.400000 0.600000
vt 0.600000 0.600000
vt 0.800000 0.600000
vt 1.000000 0.600000
vt 0.200000 0.800000
vt 0.000000 0.800000
vt 0.400000 0.800000
vt 0.600000 0.800000
vt 0.800000 0.800000
vt 1.000000 0.800000
vt 0.200000 1.000000
vt 0.000000 1.000000
vt 0.400000 1.000000
vt 0.600000 1.000000
vt 0.800000 1.000000
vt 1.000000 1.000000
vt 0.200000 0.000000
vt 0.200000 0.200000
vt 0.000000 0.200000
vt 0.000000 0.000000
vt 0.400000 0.000000
vt 0.400000 0.200000
vt 0.600000 0.000000
vt 0.600000 0.200000
vt 0.800000 0.000000
vt 0.800000 0.200000
vt 1.000000 0.000000
vt 1.000000 0.200000
vt 0.200000 0.400000
vt 0.000000 0.400000
vt 0.400000 0.400000
vt 0.600000 0.400000
vt 0.800000 0.400000
vt 1.000000 0.400000
vt 0.400000 0.600000
vt 0.200000 0.600000
vt 0.800000 0.600000
vt 0.600000 0.600000
vt 1.000000 0.600000
vt 0.200000 0.800000
vt 0.000000 0.800000
vt 0.000000 0.600000
vt 0.400000 0.800000
vt 0.600000 0.800000
vt 0.800000 0.800000
vt 1.000000 0.800000
vt 0.200000 1.000000
vt 0.000000 1.000000
vt 0.400000 1.000000
vt 0.600000 1.000000
vt 0.800000 1.000000
vt 1.000000 1.000000
vt 0.200000 0.000000
vt 0.200000 0.200000
vt 0.000000 0.200000
vt 0.000000 0.000000
vt 0.400000 0.000000
vt 0.400000 0.200000
vt 0.600000 0.000000
vt 0.600000 0.200000
vt 0.800000 0.000000
vt 0.800000 0.200000
vt 1.000000 0.000000
vt 1.000000 0.200000
vt 0.200000 0.400000
vt 0.000000 0.400000
vt 0.400000 0.400000
vt 0.600000 0.400000
vt 0.800000 0.400000
vt 1.000000 0.400000
vt 0.200000 0.600000
vt 0.000000 0.600000
vt 0.400000 0.600000
vt 0.600000 0.600000
vt 0.800000 0.600000
vt 1.000000 0.600000
vt 0.200000 0.800000
vt 0.000000 0.800000
vt 0.400000 0.800000
vt 0.600000 0.800000
vt 0.800000 0.800000
vt 1.000000 0.800000
vt 0.200000 1.000000
vt 0.400000 1.000000
vt 0.600000 1.000000
vt 0.800000 1.000000
vt 0.200000 0.000000
vt 0.200000 0.200000
vt 0.000000 0.200000
vt 0.400000 0.000000
vt 0.400000 0.200000
vt 0.600000 0.000000
vt 0.600000 0.200000
vt 0.800000 0.000000
vt 0.800000 0.200000
vt 1.000000 0.200000
vt 0.200000 0.400000
vt 0.000000 0.400000
vt 0.400000 0.400000
vt 0.600000 0.400000
vt 0.800000 0.400000
vt 1.000000 0.400000
vt 0.200000 0.600000
vt 0.000000 0.600000
vt 0.400000 0.600000
vt 0.600000 0.600000
vt 0.800000 0.600000
vt 1.000000 0.600000
vt 0.200000 0.800000
vt 0.000000 0.800000
vt 0.400000 0.800000
vt 0.600000 0.800000
vt 0.800000 0.800000
vt 1.000000 0.800000
vt 0.200000 1.000000
vt 0.000000 1.000000
vt 0.400000 1.000000
vt 0.600000 1.000000
vt 0.800000 1.000000
vt 1.000000 1.000000
vn -0.4587 0.5975 0.6577
vn -0.4869 0.6344 0.6004
vn -0.4450 0.5798 0.6825
vn -0.2516 0.3277 0.9106
vn -0.1424 0.1853 0.9723
vn 0.5919 -0.7714 0.2337
vn 0.1424 -0.1853 -0.9723
vn 0.0905 -0.1177 -0.9889
vn 0.0549 -0.0713 -0.9959
vn 0.0779 -0.1014 -0.9918
vn 0.1284 -0.1672 -0.9775
vn 0.0780 -0.1014 -0.9918
vn 0.1285 -0.1672 -0.9775
vn -0.2839 0.3698 0.8847
vn -0.3672 0.4786 0.7975
vn -0.4388 0.5720 0.6930
vn -0.4950 0.6450 0.5822
vn -0.5357 0.6981 0.4751
vn -0.2839 0.3701 0.8845
vn -0.3674 0.4784 0.7976
vn -0.4390 0.5718 0.6931
vn -0.4950 0.6449 0.5823
vn -0.5359 0.6979 0.4752
vn -0.3675 0.4784 0.7976
vn -0.5357 0.6980 0.4752
vn -0.2839 0.3699 0.8846
vn -0.3673 0.4785 0.7976
vn -0.4389 0.5718 0.6931
vn -0.4949 0.6450 0.5823
vn -0.5356 0.6982 0.4751
vn -0.2837 0.3699 0.8847
vn -0.4389 0.5719 0.6930
vn -0.4951 0.6448 0.5823
vn -0.5358 0.6979 0.4752
vn 0.6913 0.7211 -0.0467
vn 0.6629 0.7462 -0.0607
vn 0.6814 0.7300 -0.0532
vn 0.7586 0.6513 -0.0189
vn 0.7933 0.6088 0.0001
vn 0.6939 0.7187 -0.0454
vn 0.6634 0.7459 -0.0605
vn 0.6796 0.7316 -0.0540
vn 0.7545 0.6560 -0.0206
vn 0.6966 0.7161 -0.0440
vn 0.6639 0.7454 -0.0602
vn 0.6779 0.7331 -0.0547
vn 0.7503 0.6608 -0.0222
vn 0.6994 0.7135 -0.0425
vn 0.6645 0.7449 -0.0599
vn 0.6763 0.7345 -0.0554
vn 0.7459 0.6656 -0.0239
vn 0.7023 0.7107 -0.0409
vn 0.6652 0.7443 -0.0596
vn 0.6749 0.7358 -0.0560
vn 0.7415 0.6705 -0.0256
vn -0.7489 -0.6624 0.0208
vn -0.7313 -0.6814 0.0306
vn -0.7359 -0.6765 0.0287
vn -0.7677 -0.6407 0.0130
vn -0.7933 -0.6088 -0.0001
vn -0.7475 -0.6639 0.0216
vn -0.7310 -0.6817 0.0308
vn -0.7366 -0.6758 0.0283
vn -0.7698 -0.6381 0.0121
vn -0.7461 -0.6654 0.0224
vn -0.7307 -0.6820 0.0309
vn -0.7373 -0.6750 0.0280
vn -0.7720 -0.6356 0.0112
vn -0.7449 -0.6668 0.0231
vn -0.7304 -0.6823 0.0310
vn -0.7381 -0.6741 0.0276
vn -0.7740 -0.6331 0.0104
vn -0.7436 -0.6682 0.0238
vn -0.7302 -0.6825 0.0312
vn -0.7389 -0.6732 0.0272
vn -0.7760 -0.6306 0.0095
usemtl Mat
s off
f 1/1/1 2/2/1 3/3/1 4/4/1
f 5/5/2 6/6/2 2/2/2 1/1/2
f 7/7/3 8/8/3 6/6/3 5/5/3
f 9/9/4 10/10/4 8/8/4 7/7/4
f 11/11/5 12/12/5 10/10/5 9/9/5
f 2/2/1 13/13/1 14/14/1 3/3/1
f 6/6/2 15/15/2 13/13/2 2/2/2
f 8/8/3 16/16/3 15/15/3 6/6/3
f 10/10/4 17/17/4 16/16/4 8/8/4
f 12/12/5 18/18/5 17/17/5 10/10/5
f 13/13/1 19/19/1 20/20/1 14/14/1
f 15/15/2 21/21/2 19/19/2 13/13/2
f 16/16/3 22/22/3 21/21/3 15/15/3
f 17/17/4 23/23/4 22/22/4 16/16/4
f 18/18/5 24/24/5 23/23/5 17/17/5
f 19/19/1 25/25/1 26/26/1 20/20/1
f 21/21/2 27/27/2 25/25/2 19/19/2
f 22/22/3 28/28/3 27/27/3 21/21/3
f 23/23/4 29/29/4 28/28/4 22/22/4
f 24/24/5 30/30/5 29/29/5 23/23/5
f 25/25/1 31/31/1 32/32/1 26/26/1
f 27/27/2 33/33/2 31/31/2 25/25/2
f 28/28/3 34/34/3 33/33/3 27/27/3
f 29/29/4 35/35/4 34/34/4 28/28/4
f 30/30/5 36/36/5 35/35/5 29/29/5
f 37/37/6 38/38/6 12/39/6 11/40/6
f 39/41/6 40/42/6 38/38/6 37/37/6
f 41/43/6 42/44/6 40/42/6 39/41/6
f 43/45/6 44/46/6 42/44/6 41/43/6
f 45/47/6 46/48/6 44/46/6 43/45/6
f 38/38/6 47/49/6 18/50/6 12/39/6
f 40/42/6 48/51/6 47/49/6 38/38/6
f 42/44/6 49/52/6 48/51/6 40/42/6
f 44/46/6 50/53/6 49/52/6 42/44/6
f 46/48/6 51/54/6 50/53/6 44/46/6
f 47/49/6 52/55/6 24/56/6 18/50/6
f 48/51/6 53/57/6 52/55/6 47/49/6
f 49/52/6 54/58/6 53/57/6 48/51/6
f 50/53/6 55/59/6 54/58/6 49/52/6
f 51/54/6 56/60/6 55/59/6 50/53/6
f 52/55/6 57/61/6 30/62/6 24/56/6
f 53/57/6 58/63/6 57/61/6 52/55/6
f 54/58/6 59/64/6 58/63/6 53/57/6
f 55/59/6 60/65/6 59/64/6 54/58/6
f 56/60/6 61/66/6 60/65/6 55/59/6
f 57/61/6 62/67/6 36/68/6 30/62/6
f 58/63/6 63/69/6 62/67/6 57/61/6
f 59/64/6 64/70/6 63/69/6 58/63/6
f 60/65/6 65/71/6 64/70/6 59/64/6
f 61/66/6 66/72/6 65/71/6 60/65/6
f 67/73/7 68/74/7 46/75/7 45/76/7
f 69/77/8 70/78/8 68/74/8 67/73/8
f 71/79/9 72/80/9 70/78/9 69/77/9
f 73/81/10 74/82/10 72/80/10 71/79/10
f 75/83/11 76/84/11 74/82/11 73/81/11
f 68/74/7 77/85/7 51/86/7 46/75/7
f 70/78/8 78/87/8 77/85/8 68/74/8
f 72/80/9 79/88/9 78/87/9 70/78/9
f 74/82/12 80/89/12 79/88/12 72/80/12
f 76/84/11 81/90/11 80/89/11 74/82/11
f 77/85/7 82/91/7 56/92/7 51/86/7
f 78/87/8 83/93/8 82/91/8 77/85/8
f 79/88/9 84/94/9 83/93/9 78/87/9
f 80/89/10 85/95/10 84/94/10 79/88/10
f 81/90/13 86/96/13 85/95/13 80/89/13
f 82/91/7 87/97/7 61/98/7 56/92/7
f 83/93/8 88/99/8 87/97/8 82/91/8
f 84/94/9 89/100/9 88/99/9 83/93/9
f 85/95/10 90/101/10 89/100/10 84/94/10
f 86/96/11 91/102/11 90/101/11 85/95/11
f 87/97/7 92/103/7 66/104/7 61/98/7
f 88/99/8 93/105/8 92/103/8 87/97/8
f 89/100/9 94/106/9 93/105/9 88/99/9
f 90/101/12 95/107/12 94/106/12 89/100/12
f 91/102/13 96/108/13 95/107/13 90/101/13
f 97/109/14 98/110/14 76/111/14 75/112/14
f 99/113/15 100/114/15 98/110/15 97/109/15
f 101/115/16 102/116/16 100/114/16 99/113/16
f 103/117/17 104/118/17 102/116/17 101/115/17
f 4/119/18 3/120/18 104/118/18 103/117/18
f 98/110/19 105/121/19 81/122/19 76/111/19
f 100/114/20 106/123/20 105/121/20 98/110/20
f 102/116/21 107/124/21 106/123/21 100/114/21
f 104/118/22 108/125/22 107/124/22 102/116/22
f 3/120/23 14/126/23 108/125/23 104/118/23
f 106/123/24 110/127/24 109/128/24 105/121/24
f 108/125/22 112/129/22 111/130/22 107/124/22
f 14/126/25 20/131/25 112/129/25 108/125/25
f 109/128/26 113/132/26 91/133/26 86/134/26
f 110/127/27 114/135/27 113/132/27 109/128/27
f 111/130/28 115/136/28 114/135/28 110/127/28
f 112/129/29 116/137/29 115/136/29 111/130/29
f 20/131/30 26/138/30 116/137/30 112/129/30
f 113/132/31 117/139/31 96/140/31 91/133/31
f 114/135/27 118/141/27 117/139/27 113/132/27
f 115/136/32 119/142/32 118/141/32 114/135/32
f 116/137/33 120/143/33 119/142/33 115/136/33
f 26/138/34 32/144/34 120/143/34 116/137/34
f 31/145/35 121/146/35 120/147/35 32/148/35
f 33/149/36 122/150/36 121/146/36 31/145/36
f 34/151/37 123/152/37 122/150/37 33/149/37
f 35/153/38 124/154/38 123/152/38 34/151/38
f 36/155/39 62/156/39 124/154/39 35/153/39
f 121/146/40 125/157/40 119/158/40 120/147/40
f 122/150/41 126/159/41 125/157/41 121/146/41
f 123/152/42 127/160/42 126/159/42 122/150/42
f 124/154/43 128/161/43 127/160/43 123/152/43
f 62/156/39 63/162/39 128/161/39 124/154/39
f 125/157/44 129/163/44 118/164/44 119/158/44
f 126/159/45 130/165/45 129/163/45 125/157/45
f 127/160/46 131/166/46 130/165/46 126/159/46
f 128/161/47 132/167/47 131/166/47 127/160/47
f 63/162/39 64/168/39 132/167/39 128/161/39
f 129/163/48 133/169/48 117/170/48 118/164/48
f 130/165/49 134/171/49 133/169/49 129/163/49
f 131/166/50 135/172/50 134/171/50 130/165/50
f 132/167/51 136/173/51 135/172/51 131/166/51
f 64/168/39 65/174/39 136/173/39 132/167/39
f 133/169/52 95/175/52 96/140/52 117/170/52
f 134/171/53 94/176/53 95/175/53 133/169/53
f 135/172/54 93/177/54 94/176/54 134/171/54
f 136/173/55 92/178/55 93/177/55 135/172/55
f 65/174/39 66/72/39 92/178/39 136/173/39
f 73/179/56 137/180/56 97/181/56 75/112/56
f 71/182/57 138/183/57 137/180/57 73/179/57
f 69/184/58 139/185/58 138/183/58 71/182/58
f 67/186/59 140/187/59 139/185/59 69/184/59
f 45/47/60 43/188/60 140/187/60 67/186/60
f 137/180/61 141/189/61 99/190/61 97/181/61
f 138/183/62 142/191/62 141/189/62 137/180/62
f 139/185/63 143/192/63 142/191/63 138/183/63
f 140/187/64 144/193/64 143/192/64 139/185/64
f 43/188/60 41/194/60 144/193/60 140/187/60
f 141/189/65 145/195/65 101/196/65 99/190/65
f 142/191/66 146/197/66 145/195/66 141/189/66
f 143/192/67 147/198/67 146/197/67 142/191/67
f 144/193/68 148/199/68 147/198/68 143/192/68
f 41/194/60 39/200/60 148/199/60 144/193/60
f 145/195/69 149/201/69 103/202/69 101/196/69
f 146/197/70 150/203/70 149/201/70 145/195/70
f 147/198/71 151/204/71 150/203/71 146/197/71
f 148/199/72 152/205/72 151/204/72 147/198/72
f 39/200/60 37/206/60 152/205/60 148/199/60
f 149/201/73 1/207/73 4/208/73 103/202/73
f 150/203/74 5/209/74 1/207/74 149/201/74
f 151/204/75 7/210/75 5/209/75 150/203/75
f 152/205/76 9/211/76 7/210/76 151/204/76
f 37/206/60 11/212/60 9/211/60 152/205/60
