# Blender v2.80 (sub 75) OBJ File: ''
# www.blender.org
mtllib EARTHTEXT.mtl
o Text_Text.001
v 47.665535 -0.054778 -12.601919
v 44.007946 -0.025878 -12.416267
v 43.682629 -0.229248 -3.220970
v 31.844599 0.038699 -2.647223
v 32.969154 -0.162260 -13.292389
v 27.821236 -0.150389 -13.216131
v 28.744226 -0.006711 9.653208
v 31.883116 0.006798 9.566420
v 31.681780 0.114739 -0.155531
v 43.837025 -0.157144 0.426646
v 44.959969 0.122318 8.824316
v 45.956245 0.211300 8.252695
v 26.626654 -0.123053 -13.040518
v 8.128092 0.087450 -11.688240
v 8.087431 0.081121 -9.952261
v 15.518765 0.060282 -9.818392
v 14.643484 -0.075969 10.098120
v 18.671642 -0.062373 10.010780
v 18.465809 -0.030332 -9.236284
v 26.464735 -0.097847 -8.802561
v -9.239571 0.098467 -11.617470
v -9.577377 0.045882 9.315344
v -7.366191 0.098616 8.976582
v -6.542700 -0.088406 0.311514
v -3.775609 -0.033913 0.594162
v 0.612209 0.077722 4.303086
v 3.033279 -0.059848 10.044325
v 7.488644 -0.119860 9.585339
v 2.945013 0.118564 4.766551
v -0.046625 0.069133 0.444670
v -1.073944 0.105321 -0.964513
v 0.309247 0.109756 -2.231746
v 1.056054 0.162530 -3.622248
v 1.980272 0.123242 -5.344201
v 1.971844 0.044886 -8.880203
v -0.451914 0.052161 -10.985085
v -3.588740 0.172379 -11.108328
v -7.261759 0.247403 -10.088440
v -4.620766 0.205111 -10.864012
v -0.917088 0.080494 -9.234341
v 0.649538 0.168050 -4.801729
v -1.308454 0.160911 -2.506569
v -6.522886 -0.012262 -2.593460
v -22.055611 -0.013729 -12.476082
v -24.229517 0.021301 -12.226515
v -33.766552 -0.005665 9.640018
v -30.680286 0.034569 9.363895
v -27.755375 -0.002475 3.175427
v -18.514551 -0.023671 3.246030
v -15.150181 0.086010 8.995794
v -12.429537 0.010851 9.553875
v -23.270395 -0.108623 -7.413173
v -19.594910 0.084161 0.445296
v -26.502356 -0.021984 0.320264
v -35.272667 0.051487 -11.919271
v -46.447411 0.139805 -11.351915
v -47.647858 -0.047063 9.912428
v -34.562672 -0.014124 9.700827
v -34.624195 -0.004547 6.761994
v -43.876457 -0.153620 6.461585
v -44.133926 -0.033381 0.065466
v -34.107433 -0.179799 1.148344
v -34.227848 -0.161055 -3.860198
v -44.191086 -0.006686 -2.840572
v -44.699745 0.230864 -9.924801
v -35.160038 0.033955 -9.649265
v 46.630375 2.761977 -11.566757
v 44.998497 2.740022 -11.425720
v 43.904015 2.994197 -2.999588
v 31.980717 2.893207 -2.783339
v 31.724594 2.836864 -12.047832
v 28.863741 2.856445 -12.173624
v 28.302170 2.943863 10.095266
v 31.942520 2.870787 9.625826
v 32.127026 2.961534 0.289714
v 43.982986 2.957317 0.280685
v 44.077530 2.883385 9.706757
v 46.968010 2.814535 9.264463
v 25.865807 2.872954 -12.279675
v 7.578926 2.866374 -12.237406
v 7.584697 2.865475 -9.449526
v 14.747667 2.928089 -9.047295
v 15.069624 2.877972 9.671980
v 18.425200 2.892348 9.764338
v 18.125416 2.845682 -9.576677
v 25.449036 2.808077 -9.818258
v -10.531638 2.971001 -12.909536
v -9.831174 2.861963 9.569141
v -7.050816 2.818815 9.291958
v -6.458458 2.941118 0.251777
v -3.394536 2.925833 1.024315
v 0.119882 2.845817 4.318421
v 2.830261 2.979422 10.416189
v 7.372688 2.909202 9.791101
v 6.047561 2.957709 7.325161
v 2.314591 2.811852 3.225419
v -0.041887 2.769788 0.593081
v -0.744374 2.802204 -1.172995
v 0.787399 2.682542 -3.460519
v 1.939134 2.730103 -5.480787
v 1.887945 2.785862 -8.419294
v 1.551715 2.825119 -9.534105
v -0.737770 2.907806 -12.099846
v -6.539926 2.958040 -9.366608
v -3.901674 2.853387 -9.677359
v -0.894017 2.800838 -8.837641
v 0.562226 2.720988 -4.917006
v -2.431867 2.790618 -2.330868
v -6.747834 2.860944 -2.682199
v -22.321428 2.824721 -12.066975
v -24.002497 2.798735 -11.882692
v -34.608162 2.979853 10.195684
v -30.159212 2.944707 10.153639
v -28.009632 2.752738 2.790055
v -18.667065 2.963144 3.482498
v -15.404728 2.837596 9.390453
v -12.347532 2.867737 9.607161
v -23.274744 2.756115 -7.734270
v -19.913328 2.961436 0.238537
v -26.698610 2.782918 0.451554
v -35.475163 2.785330 -11.716776
v -47.936691 2.960362 -12.841192
v -47.778820 2.935788 10.043392
v -33.845886 2.994041 10.417612
v -33.948719 2.978033 6.086520
v -44.145699 2.896219 6.730827
v -44.524384 2.719369 -0.324994
v -35.046173 2.902008 0.209604
v -34.857353 2.931401 -3.230693
v -44.447655 2.755203 -2.584002
v -44.332821 2.808832 -9.557877
v -35.027027 2.855089 -9.516251
vn -0.0022 -1.0000 0.0064
vn 0.1523 -0.9877 0.0347
vn -0.0090 -0.9997 -0.0224
vn 0.0911 -0.9956 0.0202
vn 0.1801 -0.9828 0.0418
vn -0.0212 -0.9994 0.0291
vn -0.0234 -0.9995 0.0207
vn 0.1187 -0.9928 0.0146
vn 0.0040 -0.9999 -0.0112
vn 0.1002 -0.9948 0.0197
vn -0.0117 -0.9999 -0.0039
vn -0.0101 -0.9999 0.0056
vn 0.0000 0.9881 0.1538
vn -0.0291 -0.9995 -0.0081
vn 0.0000 -0.9881 -0.1538
vn 0.0033 -1.0000 -0.0017
vn 0.0761 -0.9971 -0.0013
vn 0.0049 -0.9959 0.0907
vn -0.0360 -0.9978 -0.0563
vn -0.0253 -0.9994 0.0256
vn 0.0201 0.9997 0.0139
vn -0.1106 -0.9936 -0.0235
vn -0.0041 -0.9977 -0.0670
vn -0.0154 -0.9996 0.0252
vn -0.0246 -0.9995 0.0222
vn -0.0312 -0.9995 0.0061
vn -0.0013 -1.0000 -0.0042
vn -0.0320 0.9973 -0.0664
vn -0.1235 -0.9920 -0.0268
vn 0.9831 0.1785 0.0406
vn 0.0195 -0.9995 -0.0261
vn 0.0185 -0.9994 -0.0280
vn 0.0463 -0.9978 0.0471
vn 0.0251 -0.9987 -0.0440
vn 0.0253 -0.9981 -0.0557
vn 0.0275 -0.9993 0.0242
vn 0.0273 -0.9996 -0.0075
vn 0.0151 -0.9998 0.0123
vn 0.0243 -0.9991 -0.0342
vn -0.0169 -0.9993 -0.0335
vn -0.0171 -0.9998 -0.0087
vn -0.0658 -0.9972 -0.0345
vn 0.0293 -0.9995 -0.0117
vn 0.0261 -0.9994 0.0221
vn -0.1014 -0.9923 0.0717
vn 0.0149 -0.9998 0.0134
vn 0.0151 -0.9998 0.0135
vn -0.0020 -0.9993 -0.0377
vn 0.0756 -0.9949 -0.0675
vn 0.0142 -0.9998 0.0127
vn -0.0358 -0.9986 0.0400
vn 0.0566 -0.9984 -0.0056
vn -0.0044 -0.9976 0.0690
vn -0.0204 -0.9998 -0.0067
vn -0.0882 -0.9957 -0.0271
vn -0.0207 -0.9997 -0.0088
vn -0.0164 -0.9998 -0.0089
vn -0.0142 -0.9999 -0.0034
vn -0.0438 -0.9989 -0.0170
vn 0.0146 -0.9988 0.0468
vn 0.0025 -1.0000 -0.0033
vn 0.0070 1.0000 -0.0037
vn -0.0069 1.0000 -0.0059
vn -0.0162 0.9993 -0.0323
vn 0.0733 0.9973 -0.0037
vn -0.0548 0.9983 -0.0196
vn -0.0089 0.9997 -0.0218
vn 0.0004 0.9999 0.0112
vn 0.0151 0.9998 0.0109
vn 0.0214 0.9997 0.0101
vn 0.0250 0.9997 0.0076
vn -0.0004 1.0000 0.0003
vn 0.0038 0.9996 0.0270
vn 0.0000 0.9881 -0.1538
vn 0.0247 0.9997 0.0023
vn 0.0000 -0.9881 0.1538
vn -0.0042 1.0000 -0.0023
vn -0.0011 1.0000 0.0049
vn 0.0068 1.0000 -0.0040
vn 0.0168 0.9997 0.0172
vn -0.0112 -0.9725 0.2328
vn 0.0661 0.9977 0.0165
vn 0.0039 0.9988 0.0485
vn 0.0001 0.9994 0.0352
vn 0.0025 0.9998 0.0189
vn 0.0015 0.9998 0.0198
vn 0.0039 0.9997 0.0258
vn 0.0406 0.9990 0.0201
vn -0.0775 0.9968 -0.0196
vn 0.0187 0.9994 -0.0291
vn 0.0290 0.9995 -0.0131
vn 0.0135 0.9990 -0.0432
vn 0.0263 0.9996 0.0079
vn 0.0170 0.9997 0.0146
vn 0.0323 0.9936 -0.1084
vn 0.0398 0.9979 -0.0516
vn 0.0180 0.9998 0.0051
vn 0.0037 0.9997 -0.0236
vn -0.0146 0.9996 -0.0222
vn 0.0169 0.9998 0.0106
vn -0.0173 0.9997 -0.0165
vn 0.0685 0.9972 0.0309
vn -0.0262 0.9996 0.0101
vn 0.0430 0.9990 0.0147
vn 0.0921 0.9937 -0.0644
vn 0.1303 0.9878 0.0858
vn -0.0264 0.9997 -0.0019
vn -0.0231 0.9997 0.0084
vn 0.0249 0.9996 -0.0101
vn 0.0077 0.9997 -0.0238
vn -0.0118 0.9995 0.0278
vn 0.0413 0.9991 0.0008
vn 0.0110 0.9994 0.0341
vn -0.0048 0.9995 -0.0307
vn 0.0886 0.9960 0.0091
vn 0.1301 0.9913 0.0201
vn -0.0173 0.9997 0.0153
vn -0.0197 0.9998 0.0075
vn -0.0114 0.9996 -0.0244
vn -0.0094 0.9997 -0.0223
vn -0.0041 1.0000 -0.0036
vn 0.8665 0.0606 0.4954
vn -0.2686 -0.1368 0.9535
vn 0.9993 0.0334 -0.0168
vn -0.9426 -0.0172 0.3335
vn 0.9999 0.0156 -0.0027
vn 0.0228 -0.3616 -0.9321
vn 0.7274 -0.2046 -0.6550
vn 0.6387 -0.2235 -0.7363
vn 0.7134 -0.1660 -0.6808
vn 0.8808 0.0386 0.4719
vn -0.2435 -0.1087 0.9638
vn -0.0169 -0.0660 -0.9977
vn -0.9738 0.2131 -0.0791
vn -0.0055 -0.1396 0.9902
vn -0.6946 -0.1541 -0.7027
vn 0.9957 -0.0841 -0.0394
vn 0.9738 -0.2262 -0.0218
vn -0.0575 0.3401 -0.9386
vn 0.9994 -0.0081 0.0329
vn -0.0331 0.0160 -0.9993
vn -0.3941 -0.2846 0.8739
vn -0.0244 -0.0477 0.9986
vn 0.1179 -0.0880 0.9891
vn -0.9086 -0.0319 -0.4164
vn 0.9553 0.0772 -0.2854
vn 0.8795 0.0657 -0.4713
vn 0.0808 -0.0804 0.9935
vn 0.9961 -0.0879 -0.0018
vn -0.1106 0.1313 -0.9852
vn 0.0142 0.0727 -0.9973
vn 0.7914 -0.0651 -0.6078
vn -0.9888 -0.1326 0.0691
vn 0.2400 -0.3284 0.9135
vn -0.6449 -0.0280 0.7638
vn -0.9825 -0.1858 -0.0079
vn 0.9106 0.0626 -0.4085
vn -0.0377 0.0281 -0.9989
vn 0.9218 0.0455 0.3851
vn 0.9532 0.2905 0.0841
vn -0.9136 -0.0140 0.4064
vn -0.0351 -0.2272 0.9732
vn -0.9982 -0.0583 -0.0146
vn -0.6800 -0.1249 0.7225
vn -0.0061 -0.0138 -0.9999
vn 0.0807 -0.0245 -0.9964
vn -0.0107 0.2260 0.9741
vn -0.0412 0.0230 0.9989
vn -0.0011 0.1131 0.9936
vn -0.9369 -0.0427 0.3471
vn 0.8472 0.0924 0.5232
vn 0.9950 0.0988 -0.0131
vn -0.9653 -0.2610 0.0071
vn 0.0413 -0.2202 0.9746
vn 0.9339 -0.0690 0.3509
vn -0.8636 -0.1152 0.4908
vn -0.1331 -0.0830 0.9876
vn 0.0784 -0.3946 -0.9155
vn -0.9614 -0.2740 -0.0240
vn 0.6753 -0.0256 0.7371
vn -0.9091 -0.1351 0.3940
vn 0.8760 -0.0596 -0.4785
vn 0.0205 -0.2197 -0.9754
vn -0.0175 -0.0906 0.9957
vn 0.9920 0.0199 -0.1247
vn 0.9994 -0.0173 -0.0284
vn -0.1020 0.0224 0.9945
vn -0.0843 0.1366 -0.9870
vn 0.1220 -0.1028 0.9872
vn -0.0813 0.2037 0.9756
vn -0.9951 0.0984 0.0075
vn 0.9942 -0.0726 0.0798
vn 0.7447 -0.0441 -0.6659
vn 0.9691 0.2466 0.0093
vn 0.1771 -0.3721 0.9111
vn 0.0072 0.3561 -0.9344
vn 0.9926 0.1119 -0.0474
usemtl None
s off
f 7//1 6//1 5//1
f 7//2 5//2 4//2
f 3//3 2//3 1//3
f 3//4 1//4 12//4
f 7//5 4//5 9//5
f 9//6 4//6 3//6
f 9//7 3//7 10//7
f 10//8 3//8 12//8
f 7//9 9//9 8//9
f 11//10 10//10 12//10
f 15//11 14//11 13//11
f 15//12 13//12 20//12
f 16//13 15//13 20//13
f 17//14 16//14 19//14
f 19//15 16//15 20//15
f 17//16 19//16 18//16
f 22//17 21//17 38//17
f 38//18 21//18 37//18
f 38//19 37//19 36//19
f 38//20 36//20 35//20
f 38//21 35//21 39//21
f 22//22 38//22 43//22
f 40//23 39//23 35//23
f 41//24 40//24 35//24
f 41//25 35//25 34//25
f 41//26 34//26 33//26
f 42//27 41//27 33//27
f 43//28 42//28 33//28
f 22//29 43//29 24//29
f 71//30 70//30 4//30 5//30
f 24//31 43//31 33//31
f 24//32 33//32 32//32
f 24//33 32//33 31//33
f 24//34 31//34 30//34
f 24//35 30//35 25//35
f 22//36 24//36 23//36
f 25//37 30//37 29//37
f 26//38 25//38 29//38
f 27//39 26//39 29//39
f 27//40 29//40 28//40
f 46//41 45//41 44//41
f 46//42 44//42 52//42
f 52//43 44//43 51//43
f 46//44 52//44 54//44
f 53//45 52//45 51//45
f 46//46 54//46 48//46
f 48//47 54//47 53//47
f 48//48 53//48 49//48
f 49//49 53//49 51//49
f 46//50 48//50 47//50
f 50//51 49//51 51//51
f 57//52 56//52 65//52
f 65//53 56//53 55//53
f 65//54 55//54 66//54
f 57//55 65//55 64//55
f 57//56 64//56 61//56
f 61//57 64//57 63//57
f 61//58 63//58 62//58
f 57//59 61//59 60//59
f 57//60 60//60 59//60
f 57//61 59//61 58//61
f 73//62 71//62 72//62
f 73//63 70//63 71//63
f 69//64 67//64 68//64
f 69//65 78//65 67//65
f 73//66 75//66 70//66
f 75//67 69//67 70//67
f 75//68 76//68 69//68
f 76//69 78//69 69//69
f 73//70 74//70 75//70
f 77//71 78//71 76//71
f 81//72 79//72 80//72
f 81//73 86//73 79//73
f 82//74 86//74 81//74
f 83//75 85//75 82//75
f 85//76 86//76 82//76
f 83//77 84//77 85//77
f 88//78 104//78 87//78
f 104//79 103//79 87//79
f 104//80 102//80 103//80
f 104//81 105//81 102//81
f 88//82 109//82 104//82
f 106//83 102//83 105//83
f 106//84 101//84 102//84
f 106//85 100//85 101//85
f 107//86 100//86 106//86
f 107//87 99//87 100//87
f 108//88 99//88 107//88
f 88//89 90//89 109//89
f 90//90 108//90 109//90
f 90//91 99//91 108//91
f 90//92 98//92 99//92
f 90//93 97//93 98//93
f 88//94 89//94 90//94
f 91//95 97//95 90//95
f 91//96 96//96 97//96
f 92//97 96//97 91//97
f 93//98 96//98 92//98
f 93//99 95//99 96//99
f 93//100 94//100 95//100
f 112//101 110//101 111//101
f 112//102 118//102 110//102
f 118//103 117//103 110//103
f 112//104 120//104 118//104
f 119//105 117//105 118//105
f 112//106 114//106 120//106
f 114//107 119//107 120//107
f 114//108 115//108 119//108
f 115//109 117//109 119//109
f 112//110 113//110 114//110
f 116//111 117//111 115//111
f 123//112 131//112 122//112
f 131//113 121//113 122//113
f 131//114 132//114 121//114
f 123//115 130//115 131//115
f 123//116 127//116 130//116
f 127//117 129//117 130//117
f 127//118 128//118 129//118
f 123//119 126//119 127//119
f 123//120 125//120 126//120
f 123//121 124//121 125//121
f 33//122 100//122 99//122
f 40//123 106//123 105//123
f 35//124 101//124 100//124
f 41//125 107//125 40//125
f 35//126 100//126 34//126
f 37//127 103//127 36//127
f 29//128 96//128 95//128
f 36//129 103//129 35//129
f 29//130 95//130 28//130
f 34//131 100//131 33//131
f 25//132 91//132 90//132
f 126//133 125//133 59//133 60//133
f 68//134 2//134 3//134 69//134
f 123//135 57//135 58//135 124//135
f 107//136 41//136 42//136 108//136
f 109//137 43//137 38//137 104//137
f 125//138 124//138 58//138 59//138
f 68//139 67//139 1//139 2//139
f 67//140 78//140 12//140 1//140
f 69//141 3//141 4//141 70//141
f 39//142 40//142 105//142
f 76//143 75//143 9//143 10//143
f 94//144 93//144 27//144 28//144
f 111//145 45//145 46//145 112//145
f 35//146 102//146 101//146
f 28//147 95//147 94//147
f 74//148 73//148 7//148 8//148
f 74//149 8//149 9//149 75//149
f 110//150 44//150 45//150 111//150
f 42//151 43//151 108//151
f 97//152 96//152 29//152 30//152
f 76//153 10//153 11//153 77//153
f 77//154 11//154 12//154 78//154
f 25//155 26//155 91//155
f 81//156 80//156 14//156 15//156
f 110//157 117//157 51//157 44//157
f 79//158 13//158 14//158 80//158
f 118//159 120//159 54//159 52//159
f 86//160 20//160 13//160 79//160
f 118//161 52//161 53//161 119//161
f 82//162 81//162 15//162 16//162
f 83//163 82//163 16//163 17//163
f 26//164 92//164 91//164
f 120//165 119//165 53//165 54//165
f 43//166 109//166 108//166
f 86//167 85//167 19//167 20//167
f 114//168 48//168 49//168 115//168
f 83//169 17//169 18//169 84//169
f 40//170 107//170 106//170
f 99//171 98//171 32//171 33//171
f 84//172 18//172 19//172 85//172
f 88//173 87//173 21//173 22//173
f 112//174 46//174 47//174 113//174
f 114//175 113//175 47//175 48//175
f 115//176 49//176 50//176 116//176
f 117//177 116//177 50//177 51//177
f 103//178 37//178 21//178 87//178
f 123//179 122//179 56//179 57//179
f 31//180 32//180 98//180
f 93//181 92//181 26//181 27//181
f 97//182 30//182 31//182 98//182
f 121//183 55//183 56//183 122//183
f 132//184 131//184 65//184 66//184
f 121//185 132//185 66//185 55//185
f 130//186 64//186 65//186 131//186
f 24//187 25//187 90//187
f 129//188 63//188 64//188 130//188
f 88//189 22//189 23//189 89//189
f 128//190 127//190 61//190 62//190
f 72//191 6//191 7//191 73//191
f 90//192 89//192 23//192 24//192
f 35//193 103//193 102//193
f 128//194 62//194 63//194 129//194
f 105//195 104//195 38//195 39//195
f 71//196 5//196 6//196 72//196
f 127//197 126//197 60//197 61//197
