# Blender v2.81 (sub 16) OBJ File: ''
# www.blender.org
mtllib stumpdecimated.mtl
o stump
v 34.529209 18.553110 8.351089
v 41.278782 17.515619 -4.543997
v 85.811806 6.729128 6.105342
v 109.632202 7.030552 8.901787
v 145.597031 4.652647 37.983547
v 41.798115 -0.032531 -11.646524
v 106.236038 0.031077 12.169271
v 114.662582 -0.000002 11.163769
v 163.631958 0.011761 49.150314
v 164.146225 0.017788 47.365391
v -88.104424 13.822564 35.628525
v -74.733109 18.711014 19.274975
v -128.799332 6.356406 47.926910
v -156.792725 5.480183 90.490936
v -182.947708 -0.198271 120.836327
v -96.334465 -0.036377 46.221302
v -78.461723 0.023566 15.440191
v -128.772934 0.016695 47.134865
v -132.945496 0.015455 62.548756
v -136.177307 6.117291 53.723579
v -175.959946 0.022370 116.301033
v 12.134207 21.922962 -56.042042
v 30.399664 8.544049 -76.388435
v 14.726243 35.702415 -42.076065
v 34.116138 7.974107 -133.360931
v 20.099445 3.931600 -174.491943
v 22.891544 6.989245 -84.652245
v 14.975414 -0.025906 -70.252312
v 31.139692 0.012337 -74.350471
v 30.998621 -0.067879 -124.751114
v 35.206066 -0.000012 -89.693306
v 36.342831 0.000024 -134.196838
v 16.477068 -0.012369 -194.391510
v 18.248816 0.007195 -194.279480
v -38.834816 28.169130 -38.185223
v -64.954742 13.584750 -49.619583
v -46.541786 25.632322 -33.355457
v -94.403214 8.239452 -68.459641
v -100.115051 6.314419 -75.721207
v -118.205185 5.894806 -94.261658
v -134.711929 0.111204 -121.400002
v -151.253540 -0.482317 -138.683380
v -44.369114 0.047265 -48.058514
v -91.907326 0.009913 -69.199966
v -59.613358 -0.090645 -31.399302
v -101.382057 0.039439 -64.773209
v -117.359085 0.008137 -86.377106
v -124.663322 0.008370 -111.760384
v -5.064282 22.462448 65.788971
v 8.614006 9.136111 88.184914
v 5.673625 17.789059 60.828411
v 11.983345 7.826884 106.496284
v 32.303856 6.984226 127.716690
v 27.586021 4.161796 171.708847
v 34.597122 -0.860825 206.451233
v 13.918863 0.071430 100.254463
v 28.167183 5.850476 119.362434
v 30.346991 6.099214 153.097183
v 16.507875 6.094417 114.101250
v 28.479198 0.078413 165.026001
v 30.544552 0.004292 196.573059
v 33.558723 0.022000 127.418114
v 72.126305 -0.003069 127.952827
v 70.859428 5.350704 129.499146
v 74.021576 -0.000638 133.508530
v 126.552872 -0.169133 167.353867
v 125.446655 -0.176255 169.156082
v -37.721642 0.000008 140.400604
v -25.839769 5.532248 137.209091
v -65.864052 0.175288 156.131393
v -85.856071 -0.588067 175.979980
v 100.853889 0.000199 -71.140663
v 34.645298 6.199490 -88.704636
v 81.815933 0.006933 -82.623413
v 91.061699 5.414874 -80.501839
v 96.984406 4.557589 -72.293373
v 151.160919 3.197456 -57.759594
v 159.130844 0.063876 -55.113266
v 154.163879 0.065393 -60.037243
v -11.569716 0.067814 -44.840244
v -51.828884 22.716745 -4.247640
v -58.840691 -0.399801 -8.220394
v 7.236858 -0.006466 56.880627
v 12.014417 -0.110826 36.358677
v 18.818317 -0.037504 26.630871
v 37.374912 -0.053352 11.551276
v -25.184771 0.135025 56.500118
v -54.747284 -0.016414 42.455715
v -59.797749 15.920808 38.901108
v 27.694958 0.031523 -35.416691
v 28.382807 36.778545 -3.497802
v -65.247322 33.001392 23.944199
v -1.875652 70.303696 -31.638315
v -17.146358 29.892374 -35.687206
v 29.598886 0.020506 119.465179
v 16.249249 0.000590 116.112968
v -99.964760 -0.000081 -76.071144
v -79.851410 5.632274 -96.118027
v -75.439079 0.000022 -111.778465
v -70.713707 0.000025 -106.677681
v -67.196182 -0.223842 -164.540009
v -65.578491 -1.228965 -194.521851
v -65.464813 3.873296 -141.287857
v -63.678894 -0.222665 -163.608398
v -117.017693 5.024935 -86.307793
v -120.728111 0.013282 -90.227028
v -180.822906 0.082717 -73.151321
v -207.504211 -0.626824 -61.452267
v 118.897568 0.090487 -146.106461
v 93.697006 0.002514 -80.711784
v 123.738831 0.026979 -144.076324
v 122.763214 -0.779829 -203.626465
v 126.914276 -0.231920 -197.734512
v 123.108391 -5.247291 -214.022308
v 20.156879 -2.384048 -210.937180
v 216.639587 -2.789372 -71.195129
v 203.230331 -0.725203 -67.832962
v 214.065186 -2.684394 -72.821320
v -65.713783 -3.804774 -194.564728
v -62.854130 -3.760965 -193.372284
v -163.589569 -4.141612 -148.085205
v -218.177078 -2.741371 -52.282513
v 194.330215 -3.616058 60.293934
v -201.212311 -3.767034 129.358597
v -96.689232 -4.380300 192.790619
v 40.001945 -3.952964 217.361633
v 137.152069 -3.228963 175.616989
v -177.928726 0.066130 10.291396
v -172.719147 3.912935 13.460869
v -137.121964 -0.000022 52.909458
v -158.685425 4.069459 28.818287
v -178.811844 0.070520 16.699245
v -127.716652 7.888746 55.157192
v -207.678467 -0.902105 6.729829
v -208.133575 2.366695 8.590590
v -208.443970 -0.923635 10.722318
v -226.966476 -4.424294 11.280807
v -39.256763 48.523129 -29.009796
v -21.492382 70.406097 36.971516
v -56.625774 53.363190 8.711178
v -2.211485 70.609314 34.329857
v 15.831911 70.614426 9.242312
v -38.332108 70.905937 29.394209
v 17.380585 70.712158 -10.683208
v -52.514576 70.519119 15.845760
v 8.629574 70.736351 -23.985590
v -31.961760 70.775703 -29.158005
v -42.075462 70.463554 -19.074621
v -2.839412 -0.305237 25.750637
v 3.881383 -0.046962 16.466658
v 11.208015 37.432755 25.657675
v -3.205848 34.421230 15.009180
vt 0.149916 0.790621
vt 0.148496 0.047857
vt 0.642760 0.790604
vt 0.900980 0.000000
vt 0.000000 0.827917
vt 0.486562 0.892133
vt 1.000000 0.000000
vt 0.000000 0.000000
vt 0.223724 0.000000
vt 1.000000 0.000000
vt 0.971197 0.000000
vt 0.682279 0.000000
vt 0.574902 0.000000
vt 0.508106 0.940788
vt 0.971078 0.000000
vt 0.786057 0.823009
vt 1.000000 0.000000
vt 0.080792 0.000000
vt 0.776749 0.972139
vt 0.943069 0.304384
vt 0.248958 0.930953
vt 1.000000 0.398792
vt 0.478659 0.000000
vt 0.005223 0.000126
vt 0.540742 0.210848
vt 1.000000 0.000000
vt 1.000000 0.000000
vt 0.336465 0.000000
vt 0.000000 0.000000
vt 0.732761 0.000000
vt 0.366163 0.763198
vt 0.300574 0.344852
vt 0.659811 0.963506
vt 0.021726 0.000000
vt 0.396249 0.000000
vt 0.101302 0.000002
vt 0.308922 0.593519
vt 0.907713 0.839432
vt 0.000000 0.000000
vt 0.900798 0.000000
vt 0.915488 0.000000
vt 0.242739 0.184758
vt 0.907274 0.000722
vt 0.698221 0.851394
vt 0.897461 0.000000
vt 0.164681 0.000000
vt 0.013631 0.000000
vt 0.875653 0.936747
vt 0.359874 0.958093
vt 0.000000 0.050932
vt 0.059335 0.000000
vt 1.000000 0.000000
vt 1.048722 0.000000
vt 1.000000 0.000000
vt 0.000000 0.000000
vt 1.000000 0.000000
vt 1.000000 0.000000
vt 0.961543 0.000000
vt 1.000000 0.000000
vt 1.000000 0.000000
vt 0.000000 0.000000
vt 0.125425 0.000000
vt 0.000000 0.000000
vt 1.000000 0.263204
vt 1.000000 0.293200
vt 0.979938 0.025318
vt 1.000000 0.000000
vt 1.000000 0.020173
vt 1.000000 0.292655
vt 0.000000 1.000000
vt 0.000000 0.708093
vt 0.018364 1.000000
vt 0.000000 1.000000
vt 1.000000 0.291133
vt 0.997870 1.000000
vt 0.929793 1.000000
vt 1.000000 1.000000
vt 0.010201 0.225874
vt 0.578669 0.905515
vt 0.325834 0.498582
vt 0.852181 0.645029
vt 0.545043 0.664710
vt 0.894734 1.000000
vt 0.273443 1.000000
vt 0.000000 1.000000
vt 0.467752 0.891070
vt 0.542041 1.000000
vt 0.618617 1.000000
vt 0.246331 1.000000
vt 0.285319 0.881297
vt 0.914379 1.000000
vt 0.707698 1.000000
vt 0.418926 1.000000
vt 0.556353 1.000000
vt 0.000000 0.000000
vt 0.000000 0.000000
vt 0.000000 0.000000
vt 0.000000 0.000000
vt 0.000000 0.000000
vt 0.000000 0.000000
vt 0.000000 0.000000
vt 1.000000 0.000000
vt 1.000000 0.000000
vt 1.000000 0.000000
vt 1.000000 0.001836
vt 1.000000 0.000000
vt 1.000000 0.000000
vt 1.000000 0.000000
vt 1.000000 0.004811
vt 1.000000 0.151167
vt 1.000000 0.292726
vt 0.000000 0.000000
vt 0.000000 0.000000
vt 0.000000 0.000000
vt 0.140381 0.000000
vt 1.000000 0.000000
vt 1.000000 0.000000
vt 1.000000 0.000000
vt 1.000000 0.000000
vt 1.000000 0.000000
vt 1.000000 0.000000
vt 1.000000 0.000000
vt 1.000000 0.000000
vt 0.432231 1.000000
vt 0.810640 1.000000
vt 0.059250 1.000000
vt 0.500313 1.000000
vt 0.395057 0.911774
vt 0.926700 1.000000
vt 0.378184 1.000000
vt 0.983957 1.000000
vt 0.242170 1.000000
vt 0.011183 1.000000
vt 0.009818 1.000000
vt 0.942169 1.000000
vt 0.952187 1.000000
vt 0.904643 1.000000
vt 0.000000 0.000000
vt 1.000000 0.000000
vt 1.000000 0.000000
vt 0.950228 0.000000
vt 0.409242 0.000000
vt 0.041164 0.000000
vt 0.000000 0.000182
vt 1.000000 0.000000
vt 1.000000 0.000000
vt 1.000000 0.000000
vt 1.000000 0.000000
vt 0.000000 0.000000
vt 0.000000 0.000000
vt 1.000000 0.294603
vt 0.940543 0.695784
vt 0.000000 0.000000
vt 1.000000 0.000000
vt 1.000000 0.000000
vt 0.452767 0.000000
vt 1.000000 0.000000
vt 0.000000 1.000000
vt 1.000000 1.000000
vt 0.000000 1.000000
vt 0.886263 1.000000
vn 0.6040 0.4604 0.6505
vn -0.0596 0.5498 0.8332
vn 0.5007 0.6902 -0.5224
vn 0.3042 0.7007 -0.6454
vn 0.3551 0.2478 0.9014
vn 0.5409 0.3832 -0.7487
vn 0.5384 0.1387 -0.8312
vn -0.3893 -0.4463 0.8058
vn -0.1006 0.9315 0.3497
vn 0.3232 -0.4215 -0.8473
vn -0.5741 0.8166 0.0608
vn 0.0128 0.9247 0.3804
vn 0.1667 0.9098 0.3802
vn -0.6179 0.3015 -0.7262
vn -0.0256 0.7948 -0.6063
vn -0.7040 0.4583 -0.5425
vn -0.2676 -0.8734 -0.4070
vn -0.4264 0.6197 -0.6589
vn 0.7698 0.4557 -0.4470
vn 0.4273 0.8881 0.1692
vn -0.3975 0.5145 -0.7597
vn 0.6135 0.3004 0.7303
vn 0.2172 0.9738 -0.0672
vn -0.9614 0.2585 -0.0945
vn -0.5649 0.7855 -0.2528
vn 0.7618 0.1814 -0.6219
vn 0.9401 0.3006 -0.1611
vn -0.4545 0.8907 -0.0005
vn -0.1996 0.9684 -0.1496
vn 0.0008 0.9857 -0.1682
vn -0.1552 0.4198 -0.8943
vn -0.2536 0.9369 -0.2408
vn -0.8087 0.5691 -0.1490
vn 0.3002 0.5836 -0.7545
vn -0.1095 0.9833 -0.1451
vn 0.0099 0.9782 0.2073
vn 0.2093 0.3399 -0.9169
vn -0.7824 0.5241 0.3364
vn -0.0061 0.2082 -0.9781
vn -0.5329 0.7347 0.4198
vn -0.5090 0.6426 0.5727
vn -0.5575 0.6829 0.4721
vn 0.5021 0.7213 -0.4771
vn 0.8915 0.4418 0.1004
vn 0.9184 0.3474 -0.1893
vn -0.7557 0.6233 0.2012
vn 0.4001 0.9150 0.0520
vn -0.5252 0.2860 0.8015
vn -0.1501 0.5927 0.7913
vn -0.9971 0.0712 -0.0257
vn -0.3590 0.9196 -0.1594
vn 0.5936 0.1333 0.7937
vn 0.2345 0.9495 0.2083
vn -0.0103 -0.9873 -0.1584
vn -0.9985 0.0495 -0.0248
vn 0.1878 0.9714 -0.1455
vn 0.6120 0.1496 -0.7766
vn 0.2766 0.9349 0.2224
vn 0.0905 0.9944 0.0537
vn -0.4804 0.4238 0.7679
vn -0.0112 0.8660 0.5000
vn -0.2783 0.8093 0.5173
vn -0.4514 0.4749 -0.7555
vn -0.0548 0.7500 0.6592
vn -0.2014 0.0783 0.9764
vn 0.5616 0.7721 -0.2975
vn -0.0613 0.4569 -0.8874
vn 0.1664 0.9566 -0.2392
vn -0.0883 0.9394 0.3314
vn -0.3118 0.3068 -0.8992
vn -0.8321 0.2678 -0.4856
vn -0.1052 0.2366 -0.9659
vn -0.8690 0.2446 -0.4302
vn -0.8711 0.3708 -0.3219
vn 0.2327 0.4902 0.8400
vn -0.2338 0.3890 0.8911
vn -0.1511 0.8582 0.4905
vn -0.2011 0.1034 0.9741
vn 0.9113 0.3546 -0.2094
vn -0.8376 0.2179 -0.5009
vn -0.8788 0.2521 -0.4051
vn 0.9832 0.1671 -0.0736
vn 0.4085 0.7785 0.4764
vn 0.6166 0.7448 0.2552
vn 0.1392 0.1054 0.9846
vn 0.8094 0.0929 0.5799
vn -0.1506 0.7891 0.5955
vn -0.6803 0.4904 0.5447
vn 0.9276 0.3495 -0.1320
vn -0.4383 0.2815 0.8536
vn 0.1193 0.9905 -0.0688
vn 0.7130 0.6664 0.2181
vn 0.5498 0.8349 0.0267
vn -0.9158 0.2413 -0.3211
vn -0.7413 0.6680 -0.0656
vn -0.5587 0.8177 -0.1386
vn -0.3308 0.0001 0.9437
vn -0.0712 0.9973 0.0171
vn 0.8090 0.4249 -0.4062
vn -0.0155 0.5826 -0.8126
vn 0.0502 0.9984 -0.0266
vn -0.0246 0.9971 -0.0724
vn 0.0066 0.9991 -0.0409
vn 0.0879 0.9869 -0.1352
vn 0.1261 0.9837 -0.1281
vn 0.1182 0.9848 -0.1272
vn -0.9970 0.0533 -0.0556
vn 0.6965 0.7141 -0.0698
vn -0.1061 0.8457 0.5229
vn 0.1443 0.9883 0.0499
vn 0.3720 0.6677 -0.6449
vn 0.0438 0.1183 -0.9920
vn 0.1948 0.4502 -0.8714
vn -0.2246 0.9681 -0.1113
vn -0.0928 0.4828 -0.8708
vn -0.6583 0.3411 0.6711
vn -0.3278 0.9447 -0.0112
vn -0.1271 0.5477 0.8269
vn -0.6353 0.7545 0.1647
vn -0.2985 0.8231 0.4830
vn 0.0898 0.7569 -0.6474
vn 0.3803 0.8443 -0.3774
vn -0.2764 0.7210 -0.6354
vn -0.6064 0.7151 -0.3477
vn 0.6244 0.7667 -0.1490
vn 0.6141 -0.5001 0.6106
vn -0.0421 0.4926 0.8692
vn 0.8537 0.4650 -0.2346
vn 0.9728 0.0283 -0.2299
vn 0.1515 0.6041 0.7824
vn 0.6849 0.2067 0.6987
vn -0.9672 0.1882 0.1704
vn 0.3310 -0.9310 0.1537
vn -0.4701 -0.7582 0.4518
vn 0.4233 0.7985 -0.4280
vn 0.4447 0.7852 -0.4309
vn 0.9035 0.2982 -0.3078
vn -0.6514 0.7311 -0.2028
vn 0.3876 0.3393 -0.8571
vn -0.4276 0.3664 0.8264
vn 0.4847 0.6586 -0.5756
vn -0.0658 -0.9928 -0.1000
vn -0.0630 -0.9928 -0.1016
vn 0.1153 0.7964 0.5936
vn 0.0636 0.9977 -0.0243
vn 0.8043 0.5926 -0.0444
vn 0.2917 0.9114 -0.2903
vn 0.3885 0.8512 -0.3529
vn -0.4157 0.6767 -0.6076
vn -0.2787 -0.6481 0.7087
usemtl 01___Default
s 1
f 1/1/1 3/2/2 2/3/3
f 2/3/3 3/2/2 4/4/4
f 86/5/5 3/2/2 1/1/1
f 6/6/6 4/4/4 8/7/7
f 7/8/8 5/9/9 3/2/2
f 8/7/7 5/9/9 10/10/10
f 20/11/11 14/12/12 133/13/13
f 17/14/14 13/15/15 12/16/16
f 21/17/17 15/18/18 14/12/12
f 24/19/19 23/20/20 22/21/21
f 29/22/22 23/20/20 24/19/19
f 25/23/23 30/24/24 27/25/25
f 25/23/23 31/26/26 32/27/27
f 30/24/24 26/28/28 33/29/29
f 32/27/27 26/28/28 25/23/23
f 33/29/29 26/28/28 115/30/30
f 35/31/31 36/32/32 37/33/33
f 39/34/34 40/35/35 38/36/36
f 36/32/32 43/37/37 38/36/36
f 38/36/36 45/38/38 36/32/32
f 97/39/39 40/35/35 39/34/34
f 38/36/36 105/40/40 46/41/41
f 50/42/42 57/43/43 51/44/44
f 126/45/45 54/46/46 55/47/47
f 87/48/48 50/42/42 49/49/49
f 56/50/50 52/51/51 50/42/42
f 62/52/52 58/53/53 61/54/54
f 60/55/55 54/46/46 58/53/53
f 60/55/55 55/47/47 54/46/46
f 64/56/56 95/57/57 57/43/43
f 62/52/52 64/56/56 53/58/58
f 127/59/59 66/60/60 64/56/56
f 69/61/61 59/62/62 52/51/51
f 52/51/51 56/50/50 68/63/63
f 68/63/63 69/61/61 52/51/51
f 76/64/64 29/22/22 72/65/65
f 31/26/26 73/66/66 74/67/67
f 74/67/67 73/66/66 75/68/68
f 76/64/64 75/68/68 23/20/20
f 72/65/65 77/69/69 76/64/64
f 80/70/70 22/21/21 28/71/71
f 94/72/72 80/70/70 43/73/37
f 43/37/37 35/31/31 94/74/72
f 81/75/73 82/76/74 17/77/14
f 16/78/75 89/79/76 11/80/77
f 16/78/75 88/81/78 89/79/76
f 24/19/19 90/82/79 29/22/22
f 138/83/80 37/33/33 82/76/74
f 140/84/81 81/85/73 12/16/16
f 51/44/44 83/86/82 141/87/83
f 142/88/84 85/89/85 1/90/1
f 151/91/86 85/89/85 142/88/84
f 87/48/48 49/49/49 139/92/87
f 89/79/76 92/93/88 11/80/77
f 24/19/19 91/94/89 90/82/79
f 60/55/55 59/62/62 96/95/90
f 38/36/36 98/96/91 39/34/34
f 100/97/92 103/98/93 98/96/91
f 99/99/94 103/98/93 101/100/95
f 102/101/96 101/100/95 103/98/93
f 47/102/97 105/40/40 107/103/98
f 110/104/99 77/69/69 79/105/100
f 75/68/68 110/104/99 111/106/101
f 113/107/102 109/108/103 111/106/101
f 118/109/104 117/110/105 116/111/106
f 101/100/95 102/101/96 119/112/107
f 120/113/108 102/101/96 103/98/93
f 9/114/109 123/115/110 5/9/9
f 10/10/10 5/9/9 123/115/110
f 57/43/43 52/51/51 53/58/58
f 129/116/111 18/117/112 128/118/113
f 129/116/111 133/13/13 13/15/15
f 129/116/111 20/11/11 133/13/13
f 135/119/114 128/118/113 134/120/115
f 129/116/111 135/119/114 131/121/116
f 137/122/117 136/123/118 135/119/114
f 142/88/84 1/90/1 91/94/89
f 12/16/16 92/93/88 145/124/119
f 141/87/83 139/92/87 49/49/49
f 142/88/84 141/87/83 151/91/86
f 87/48/48 139/92/87 143/125/120
f 87/48/48 143/125/120 89/79/76
f 145/124/119 92/93/88 143/125/120
f 24/19/19 93/126/121 146/127/122
f 94/72/72 147/128/123 93/126/121
f 147/128/123 138/83/80 148/129/124
f 146/127/122 144/130/125 24/19/19
f 152/131/126 85/89/85 151/91/86
f 150/132/127 85/89/85 152/131/126
f 149/133/128 151/91/86 84/134/129
f 147/128/123 148/129/124 93/126/121
f 143/125/120 139/92/87 145/124/119
f 93/126/121 145/124/119 139/92/87
f 152/135/126 149/136/128 150/137/130
f 5/9/9 4/4/4 3/2/2
f 86/5/5 7/8/8 3/2/2
f 6/6/6 2/3/3 4/4/4
f 7/8/8 9/114/109 5/9/9
f 8/7/7 4/4/4 5/9/9
f 12/16/16 13/15/15 11/80/77
f 13/15/15 133/13/13 11/80/77
f 133/13/13 19/138/131 16/78/75
f 16/78/75 11/80/77 133/13/13
f 17/14/14 18/117/112 13/15/15
f 19/138/131 133/13/13 14/12/12
f 14/12/12 20/11/11 130/139/132
f 14/12/12 15/18/18 19/138/131
f 130/139/132 21/17/17 14/12/12
f 23/20/20 27/25/25 22/21/21
f 25/23/23 23/20/20 73/66/66
f 25/23/23 27/25/25 23/20/20
f 28/71/71 22/21/21 27/25/25
f 25/23/23 73/66/66 31/26/26
f 30/24/24 25/23/23 26/28/28
f 32/27/27 34/140/133 26/28/28
f 34/140/133 115/30/30 26/28/28
f 38/36/36 40/35/35 105/40/40
f 41/141/134 40/35/35 42/142/135
f 40/35/35 48/143/136 42/142/135
f 36/32/32 35/31/31 43/37/37
f 43/37/37 44/144/137 38/36/36
f 38/36/36 46/41/41 45/38/38
f 97/39/39 48/143/136 40/35/35
f 47/102/97 46/41/41 105/40/40
f 106/145/138 40/35/35 41/141/134
f 51/44/44 49/49/49 50/42/42
f 50/42/42 52/51/51 57/43/43
f 87/48/48 56/50/50 50/42/42
f 83/86/82 51/44/44 57/43/43
f 95/57/57 83/86/82 57/43/43
f 60/55/55 58/53/53 59/62/62
f 62/52/52 53/58/58 58/53/53
f 61/54/54 58/53/53 54/46/46
f 61/54/54 54/46/46 126/45/45
f 64/56/56 63/146/139 95/57/57
f 53/58/58 64/56/56 57/43/43
f 62/52/52 65/147/140 64/56/56
f 63/146/139 64/56/56 66/60/60
f 65/147/140 67/148/141 64/56/56
f 127/59/59 64/56/56 67/148/141
f 96/95/90 59/62/62 69/61/61
f 96/95/90 69/61/61 70/149/142
f 70/149/142 69/61/61 68/63/63
f 68/63/63 71/150/143 70/149/142
f 28/71/71 27/25/25 30/24/24
f 76/64/64 23/20/20 29/22/22
f 75/68/68 73/66/66 23/20/20
f 72/65/65 78/151/144 77/69/69
f 117/110/145 77/69/69 78/151/144
f 117/110/145 79/105/100 77/69/69
f 36/32/32 45/38/38 37/33/33
f 82/76/74 37/33/33 45/38/38
f 81/85/73 17/14/14 12/16/16
f 86/152/5 1/90/1 85/89/85
f 87/48/48 89/79/76 88/81/78
f 6/6/6 90/82/79 91/94/89
f 1/90/1 2/3/3 91/94/89
f 12/16/16 11/80/77 92/93/88
f 93/126/121 22/21/21 80/70/70
f 93/126/121 80/70/70 94/72/72
f 81/75/73 138/83/80 82/76/74
f 84/134/129 141/87/83 83/86/82
f 84/134/129 151/91/86 141/87/83
f 2/3/3 6/6/6 91/94/89
f 97/39/39 39/34/34 98/96/91
f 98/96/91 99/99/94 97/39/39
f 44/144/137 100/97/92 38/36/36
f 98/96/91 38/36/36 100/97/92
f 99/99/94 98/96/91 103/98/93
f 100/97/92 104/153/146 103/98/93
f 40/35/35 106/145/138 105/40/40
f 106/145/138 107/103/98 105/40/40
f 110/104/99 75/68/68 77/69/69
f 76/64/64 77/69/69 75/68/68
f 75/68/68 109/108/103 74/67/67
f 111/106/101 109/108/103 75/68/68
f 109/108/103 113/107/102 112/154/147
f 113/107/102 114/155/148 112/154/147
f 104/153/146 120/113/108 103/98/93
f 21/17/17 124/156/149 15/18/18
f 59/62/62 53/58/58 52/51/51
f 59/62/62 58/53/53 53/58/58
f 129/116/111 13/15/15 18/117/112
f 130/139/132 20/11/11 131/121/116
f 131/121/116 132/157/150 130/139/132
f 129/116/111 131/121/116 20/11/11
f 135/119/114 129/116/111 128/118/113
f 132/157/150 131/121/116 135/119/114
f 135/119/114 136/123/118 132/157/150
f 137/122/117 135/119/114 134/120/115
f 24/19/19 22/21/21 93/126/121
f 37/33/33 138/83/80 35/31/31
f 147/128/123 35/31/31 138/83/80
f 141/87/83 49/49/49 51/44/44
f 35/158/31 147/128/123 94/72/72
f 140/159/81 148/129/124 81/75/73
f 148/129/124 138/83/80 81/75/73
f 140/84/81 12/16/16 145/124/119
f 89/79/76 143/125/120 92/93/88
f 91/94/89 24/19/19 144/130/125
f 142/88/84 91/94/89 144/130/125
f 145/124/119 148/160/124 140/84/81
f 149/133/128 152/161/126 151/91/86
f 139/92/87 142/88/84 144/130/125
f 146/127/122 93/126/121 144/130/125
f 93/126/121 139/92/87 144/130/125
f 139/92/87 141/87/83 142/88/84
f 148/129/124 145/124/119 93/126/121
l 107 108
l 42 121
l 71 125
l 108 122
