# Blender v2.81 (sub 16) OBJ File: ''
# www.blender.org
mtllib Rock3.mtl
o Rock3_Icosphere
v -0.475294 -0.373436 -0.001257
v 0.273636 -0.373436 -0.398488
v 0.103591 -0.373436 0.498738
v -0.683371 -0.261787 -0.287881
v -0.757085 -0.006587 -0.310270
v -0.465230 -0.006967 -0.810274
v 0.000943 -0.283452 -0.896605
v 0.007035 -0.006967 -1.001256
v 0.428000 0.176911 -0.640292
v 0.691256 -0.266908 -0.292479
v 0.776294 0.048007 -0.152080
v 0.771175 -0.006967 0.307757
v 0.422393 -0.373436 0.723777
v 0.574587 0.119184 0.717422
v 0.009552 -0.039125 0.881951
v -0.414919 -0.277379 0.727452
v -0.351450 0.115934 0.690585
v -0.684953 -0.067025 0.213170
v -0.000753 0.222961 -0.618875
v -0.553973 0.117446 -0.554315
v -0.116919 0.386792 -0.162467
v 0.690499 0.274404 -0.001256
v 0.228837 0.416632 0.277788
v -0.565632 0.234663 0.057606
v -0.151016 0.349149 0.403496
v 0.242803 0.254824 0.628050
vt 0.272727 0.000000
vt 0.227273 0.078731
vt 0.318182 0.078731
vt 0.682630 0.157461
vt 0.681818 0.236191
vt 0.772726 0.236191
vt 0.861417 0.157461
vt 0.863635 0.236191
vt 0.976932 0.274966
vt 0.133991 0.157461
vt 0.136363 0.236191
vt 0.227273 0.236191
vt 0.318144 0.157461
vt 0.295795 0.274966
vt 0.409090 0.236191
vt 0.498357 0.157461
vt 0.500000 0.236191
vt 0.590909 0.236191
vt 0.865074 0.314921
vt 0.727272 0.314921
vt 0.734208 0.460369
vt 0.921286 0.436006
vt 0.181818 0.314921
vt 0.227273 0.393651
vt 0.592838 0.339552
vt 0.477323 0.354375
vt 0.545454 0.472382
vt 0.431767 0.354375
vt 0.318182 0.393651
vt 0.363636 0.472382
vt 0.363636 0.314921
vt 0.165219 0.443632
vt 0.067841 0.274966
vt 0.621279 0.339552
vt 0.000000 0.157461
vt 0.477087 0.039044
vt 0.409090 0.078731
vt 0.075906 0.078731
vt 0.636200 0.077805
vt 0.863635 0.078731
vt 0.773786 0.076895
vn -0.0000 -1.0000 -0.0000
vn -0.8287 -0.2818 -0.4835
vn 0.6920 -0.2689 -0.6700
vn 0.9674 -0.2526 -0.0194
vn 0.2993 -0.0802 0.9508
vn -0.8375 0.1834 0.5148
vn -0.2158 0.9003 -0.3781
vn 0.0856 0.9445 -0.3172
vn 0.4226 0.8695 0.2559
vn -0.3008 0.9526 0.0452
vn -0.1566 0.9861 0.0562
vn -0.0222 0.9073 0.4200
vn 0.2535 0.8820 0.3973
vn 0.1745 0.9636 -0.2024
vn 0.1773 0.9594 -0.2192
vn -0.3939 0.9013 -0.1802
vn -0.7889 0.4978 0.3603
vn -0.4894 0.8120 0.3179
vn -0.2006 0.7267 0.6570
vn 0.0490 0.6303 0.7748
vn 0.8289 0.5041 0.2426
vn 0.9444 0.3250 0.0494
vn 0.7454 0.5415 -0.3888
vn 0.0663 0.8557 -0.5132
vn -0.2181 0.8459 -0.4868
vn -0.7957 0.3886 -0.4647
vn -0.6443 0.7487 -0.1557
vn -0.0006 0.7764 0.6303
vn -0.4117 0.1507 0.8988
vn -0.0510 -0.4779 0.8770
vn 0.8395 -0.2532 0.4808
vn 0.7951 -0.5879 0.1487
vn 0.8179 0.0351 -0.5742
vn 0.6489 -0.1921 -0.7362
vn -0.2052 0.8369 -0.5074
vn -0.3547 -0.3241 -0.8770
vn -0.5012 -0.6767 -0.5394
vn -0.8824 0.4378 0.1722
vn -0.9581 -0.2679 0.1011
vn -0.8157 -0.5401 0.2074
vn -0.1205 -0.9829 0.1395
vn -0.1118 -0.9810 0.1584
vn 0.2551 -0.9663 -0.0338
vn 0.3113 -0.8907 -0.3313
vn -0.6223 -0.7677 0.1528
vn -0.0733 -0.9877 -0.1383
vn -0.2188 -0.9524 -0.2121
usemtl Material.003
s 1
f 1/1/1 2/2/1 3/3/1
f 4/4/2 5/5/2 6/6/2
f 7/7/3 8/8/3 9/9/3
f 10/10/4 11/11/4 12/12/4
f 13/13/5 14/14/5 15/15/5
f 16/16/6 17/17/6 18/18/6
f 19/19/7 20/20/7 21/21/7
f 9/9/8 19/19/8 21/22/8
f 14/14/9 22/23/9 23/24/9
f 24/25/10 25/26/10 21/27/10
f 25/28/11 23/29/11 21/30/11
f 25/28/12 26/31/12 23/29/12
f 26/31/13 14/14/13 23/29/13
f 23/24/14 22/23/14 21/32/14
f 22/23/15 9/33/15 21/32/15
f 21/21/16 20/20/16 24/34/16
f 18/18/17 17/17/17 24/25/17
f 17/17/18 25/26/18 24/25/18
f 15/15/19 26/31/19 25/26/19
f 15/15/20 14/14/20 26/31/20
f 12/12/21 22/23/21 14/14/21
f 12/12/22 11/11/22 22/23/22
f 11/11/23 9/33/23 22/23/23
f 9/9/24 8/8/24 19/19/24
f 6/6/25 20/20/25 19/19/25
f 6/6/26 5/5/26 20/20/26
f 5/5/27 24/34/27 20/20/27
f 17/17/28 15/15/28 25/26/28
f 17/17/29 16/16/29 15/15/29
f 16/16/30 13/13/30 15/15/30
f 14/14/31 13/13/31 12/12/31
f 13/13/32 10/10/32 12/12/32
f 11/11/33 10/10/33 9/33/33
f 10/10/34 7/35/34 9/33/34
f 8/8/35 6/6/35 19/19/35
f 8/8/36 7/7/36 6/6/36
f 7/7/37 4/4/37 6/6/37
f 5/5/38 18/18/38 24/34/38
f 5/5/39 4/4/39 18/18/39
f 4/4/40 16/16/40 18/18/40
f 1/36/41 3/37/41 16/16/41
f 3/37/42 13/13/42 16/16/42
f 3/3/1 2/2/1 13/13/1
f 2/2/43 10/10/43 13/13/43
f 2/38/44 7/35/44 10/10/44
f 4/4/45 1/39/45 16/16/45
f 2/40/46 1/41/46 7/7/46
f 1/41/47 4/4/47 7/7/47
