# Blender v2.81 (sub 16) OBJ File: ''
# www.blender.org
mtllib burntTerrainFlatDecimated.mtl
o burntTerrainFlat
v 2052.433838 -9.843936 -1991.620728
v 2052.445801 -35.025021 -1603.175659
v 1498.620605 -4.664371 -1334.371704
v 2052.635254 21.134853 -759.244385
v 2052.242676 19.076326 -244.245377
v 1788.525513 47.290394 -349.199158
v 1793.651245 44.035030 116.940956
v 2051.332031 -2.616005 501.217865
v 1827.721802 56.069366 570.762146
v 2051.999512 29.932522 1050.716431
v 1782.793457 33.132648 923.927979
v 1946.367676 35.240067 1602.761597
v 2054.138916 19.901880 1623.720337
v 2051.933350 46.805515 2008.554565
v 1915.908325 18.301065 2008.865723
v 1643.362793 -19.330530 -1835.434204
v 1605.523438 -11.306006 -944.244202
v 1446.000488 36.891247 -212.675552
v 1678.709229 56.959663 1482.715088
v 1541.723999 7.108753 1749.658203
v 1475.460083 17.618881 -1991.536011
v 1399.636597 17.222054 -567.676880
v 1320.003662 -12.615172 106.740417
v 1559.777710 16.443626 819.906128
v 1346.622070 -2.963977 1279.797485
v 1326.155396 31.934004 835.126526
v 1324.991821 11.271984 1548.512207
v 930.908691 4.487928 2008.727051
v 1302.273804 54.920238 -1832.417236
v 1092.323486 40.626503 -1672.547729
v 1091.627563 -7.706131 -1231.411621
v 1300.908203 49.472939 -437.871063
v 1204.675903 39.681057 -250.495102
v 1202.055908 -8.898663 438.755432
v 1077.474731 9.690929 841.871460
v 1148.579590 15.100080 -790.661682
v 1134.131104 54.065903 -55.195377
v 1090.328613 33.246983 588.447083
v 1097.286499 26.301165 1132.443115
v 921.896362 -5.145700 -1989.698120
v 898.874084 17.152321 -1596.040649
v 829.848938 0.936005 -1196.093506
v 831.428528 -13.602407 -663.941162
v 798.787354 47.157192 1308.213501
v 937.426758 35.830276 -899.967285
v 871.241638 44.025204 -138.188004
v 765.297546 13.650033 220.048981
v 781.696045 -7.752000 625.370483
v 924.894714 34.856831 818.056763
v 740.393066 2.952868 1575.809692
v 792.074585 45.162235 -1749.745972
v 688.259155 19.415028 -1049.800171
v 700.369202 67.692245 14.474489
v 539.553406 6.315956 -1990.941528
v 530.751282 17.649672 -1810.056641
v 624.865784 9.533439 -871.866028
v 434.662170 -14.838492 -137.996933
v 610.605652 40.093437 968.819824
v 563.475342 36.352699 -1346.891235
v 516.137085 16.898518 -1001.065918
v 352.952972 23.425922 -594.228333
v 436.441833 19.596260 285.719604
v 314.797241 21.998009 -1738.002808
v 390.970520 29.049662 -1108.038330
v 370.643677 -29.091148 1603.659302
v 52.487080 -3.265933 -1990.754028
v 46.225883 7.577315 21.824438
v 138.744293 -26.869431 557.096130
v -199.486298 19.417372 -1669.554077
v 50.170418 78.445473 -1159.643921
v 141.491394 15.590195 -935.201416
v -45.838341 9.151514 -295.262970
v -301.472931 36.120171 639.855286
v -172.420517 17.465977 914.980347
v -226.341766 26.367876 1148.116577
v -211.166412 -12.543166 1572.194580
v -285.377380 -13.852454 2008.078125
v -260.336121 -4.755998 1296.503418
v -243.694077 29.118248 -1090.983032
v -325.406097 11.579336 -789.417847
v -268.761475 17.458715 -38.883411
v -427.531250 -23.310392 -1990.329956
v -382.595734 58.263248 -1347.495605
v -437.141846 -0.036995 -486.922668
v -324.929626 14.613528 496.655579
v -381.126984 -8.680163 942.558167
v -562.581848 -6.416813 230.964767
v -662.695435 13.130312 -1452.335815
v -488.031250 28.063925 -1120.118530
v -479.481415 17.802389 -17.029411
v -589.532349 5.935335 1564.715088
v -744.451477 1.784361 1685.313965
v -624.571899 20.487556 -1734.874634
v -678.981384 23.594097 -941.609436
v -665.184814 32.009312 1136.861816
v -892.679504 18.727350 -176.342545
v -736.430237 6.080720 568.919312
v -992.668030 -1.920701 -1991.703003
v -877.400635 51.995190 -1323.527710
v -1045.473022 -6.404612 -1017.351440
v -893.738892 12.981492 -453.609222
v -927.609497 -13.553555 210.534409
v -887.884460 7.817770 1011.718994
v -935.791565 38.750286 1225.534912
v -1439.093140 32.612366 2008.889160
v -991.891479 27.627323 -46.709206
v -1274.539795 -4.876740 667.833008
v -1154.976318 -25.369322 -1475.366089
v -1257.077637 7.055343 -618.863220
v -1287.730835 1.336578 316.076294
v -1242.295532 21.079004 928.896423
v -1203.687622 36.670185 1213.410156
v -1140.283691 -16.639708 1595.511719
v -1947.459229 0.305235 -1991.719238
v -1407.101929 15.220597 -1089.793091
v -1391.835327 9.018464 2.943851
v -1460.186646 35.927929 1121.792603
v -1327.874512 49.820793 1615.257690
v -1715.257202 -13.794527 -1654.543457
v -1615.868408 22.678808 -906.569580
v -1476.793579 23.090591 771.207153
v -1536.086792 29.076649 -496.298950
v -1590.234863 25.566422 121.542191
v -1948.319702 38.996998 310.722382
v -1948.040161 8.700445 -1508.454102
v -1817.571045 29.771965 643.706543
v -1639.500244 5.317724 1205.574585
v -1947.354492 -6.432954 2008.403076
v -1948.463501 44.447636 -923.768555
v -1947.436279 -14.949648 -547.509033
v -1946.600830 -8.757799 866.836975
vt 0.103104 0.027036
vt 0.167244 0.143207
vt 0.314872 0.007480
vt 0.412244 0.065386
vt 0.444138 0.007772
vt 0.528515 0.059615
vt 0.626638 0.001329
vt 0.643000 0.062578
vt 0.760595 0.000000
vt 0.732935 0.063376
vt 0.900835 0.036596
vt 0.903900 0.000000
vt 1.000014 0.000000
vt 1.000000 0.033810
vt 0.041103 0.105471
vt 0.261249 0.108393
vt 0.453577 0.146522
vt 0.945080 0.125048
vt 0.000000 -0.000004
vt 0.000000 0.144291
vt 0.355845 0.167119
vt 0.702903 0.115982
vt 0.868370 0.102094
vt 0.522805 0.183287
vt 0.699364 0.189132
vt 0.816004 0.176386
vt 0.884024 0.184389
vt 0.994456 0.276110
vt 0.036711 0.187641
vt 0.077246 0.240426
vt 0.194427 0.243913
vt 0.388546 0.187500
vt 0.435644 0.212175
vt 0.603968 0.207564
vt 0.706320 0.239115
vt 0.298221 0.231929
vt 0.485985 0.229107
vt 0.645804 0.238823
vt 0.782791 0.237543
vt -0.000403 0.277369
vt 0.099542 0.292700
vt 0.200061 0.301776
vt 0.331191 0.305669
vt 0.823954 0.312693
vt 0.272961 0.281250
vt 0.463836 0.296188
vt 0.562414 0.309521
vt 0.666801 0.311804
vt 0.703500 0.282538
vt 0.894057 0.327452
vt 0.059305 0.313861
vt 0.052490 0.385563
vt 0.230820 0.331018
vt 0.277557 0.353360
vt 0.500574 0.336750
vt 0.000000 0.378293
vt 0.463629 0.381181
vt 0.572094 0.388725
vt 0.737198 0.358990
vt 0.162947 0.378348
vt 0.250000 0.383852
vt 0.340976 0.427953
vt 0.904139 0.428658
vt 0.206039 0.421628
vt 0.000872 0.495392
vt 0.064708 0.432311
vt 0.640578 0.483972
vt 0.089023 0.564657
vt 0.207588 0.506859
vt 0.263289 0.482523
vt 0.425297 0.529283
vt 0.498533 0.488401
vt 0.721206 0.560740
vt 0.783901 0.569666
vt 0.985695 0.605840
vt 0.656613 0.586257
vt 0.827079 0.582983
vt 0.898313 0.568164
vt 0.228326 0.574445
vt 0.301262 0.593353
vt 0.007213 0.627593
vt 0.154644 0.607247
vt 0.371128 0.623908
vt 0.495951 0.568077
vt 0.622235 0.594467
vt 0.736931 0.608406
vt 0.559326 0.650128
vt 0.134135 0.677327
vt 0.216135 0.635984
vt 0.483643 0.645364
vt 0.878252 0.654014
vt 0.924759 0.695001
vt 0.065345 0.667845
vt 0.260261 0.683956
vt 0.637950 0.699241
vt 0.773205 0.678976
vt 0.457952 0.740273
vt 0.016300 0.752909
vt 0.169102 0.735807
vt 0.240187 0.780109
vt 0.388027 0.731215
vt 0.546420 0.740708
vt 0.811606 0.751517
vt 0.986017 0.861709
vt 0.489762 0.763011
vt 0.586432 0.826387
vt 0.663922 0.832508
vt 0.750776 0.736343
vt 0.109774 0.808760
vt 0.224399 0.865156
vt 0.339183 0.824362
vt 0.729769 0.825796
vt 0.803108 0.820825
vt 0.897993 0.796098
vt 0.000008 1.000010
vt 0.368797 0.904699
vt 0.497396 0.863145
vt 0.901873 0.851441
vt 0.089024 0.942952
vt 0.278037 0.925371
vt 0.524531 0.901244
vt 0.685831 0.880788
vt 0.778106 0.884238
vt 0.576660 1.000768
vt 0.795147 0.931289
vt 0.114386 0.992943
vt 0.656132 0.960643
vt 0.351481 0.989015
vt 0.714538 0.999795
vt 0.272088 0.998621
vt 0.999998 0.999998
vn 0.0225 0.9975 -0.0664
vn 0.1048 0.9945 0.0041
vn 0.1041 0.9946 0.0058
vn 0.1361 0.9903 0.0290
vn 0.2366 0.9699 -0.0577
vn -0.0176 0.9979 0.0626
vn 0.0151 0.9999 -0.0067
vn 0.1377 0.9903 0.0168
vn 0.1535 0.9858 -0.0680
vn -0.2050 0.9784 0.0254
vn 0.0472 0.9988 -0.0156
vn -0.0363 0.9956 -0.0869
vn -0.0274 0.9996 0.0073
vn 0.2408 0.9696 -0.0438
vn -0.0558 0.9977 0.0374
vn 0.0475 0.9968 0.0646
vn -0.2153 0.8728 0.4381
vn -0.0893 0.9951 0.0414
vn -0.0497 0.9976 -0.0488
vn -0.0504 0.9974 -0.0519
vn 0.0921 0.9954 -0.0253
vn -0.0021 0.9832 0.1825
vn 0.0049 0.9996 -0.0269
vn -0.1401 0.9901 0.0068
vn -0.0986 0.9938 0.0520
vn -0.0265 0.9956 -0.0899
vn -0.1989 0.9773 0.0730
vn 0.0613 0.9955 -0.0719
vn -0.2279 0.9698 0.0866
vn -0.1395 0.9882 -0.0636
vn -0.1029 0.9860 0.1313
vn -0.0140 0.9996 -0.0229
vn 0.2127 0.9771 0.0025
vn 0.2024 0.9155 0.3476
vn 0.1089 0.9941 0.0023
vn -0.0030 0.9998 0.0178
vn 0.0377 0.9978 -0.0550
vn 0.2110 0.9741 -0.0815
vn 0.0031 0.9985 0.0538
vn -0.0119 0.9888 0.1486
vn -0.0427 0.9987 -0.0263
vn 0.0579 0.9911 -0.1202
vn -0.0866 0.9929 0.0819
vn 0.0423 0.9975 -0.0571
vn 0.1242 0.9810 -0.1492
vn -0.1563 0.9873 -0.0287
vn 0.3060 0.9512 0.0405
vn 0.2699 0.9591 0.0851
vn 0.1642 0.9747 -0.1518
vn 0.1552 0.9856 -0.0669
vn 0.1404 0.9892 -0.0411
vn 0.0031 0.9998 0.0174
vn -0.0405 0.9621 -0.2696
vn -0.1249 0.9893 -0.0756
vn -0.0455 0.9815 0.1861
vn 0.0086 0.9979 0.0635
vn 0.0255 0.9982 -0.0549
vn -0.1037 0.9940 -0.0345
vn -0.0864 0.9924 0.0879
vn 0.0688 0.9976 -0.0016
vn 0.0393 0.9981 0.0473
vn 0.1892 0.9649 -0.1824
vn -0.0081 0.9795 0.2015
vn -0.0134 0.9968 -0.0783
vn -0.0810 0.9873 0.1370
vn 0.0080 0.9962 0.0868
vn -0.1211 0.9889 0.0858
vn 0.2058 0.9121 -0.3546
vn 0.1727 0.9826 -0.0679
vn -0.0065 0.9868 0.1616
vn -0.0141 0.9999 0.0027
vn 0.0596 0.9830 -0.1739
vn -0.0378 0.9781 0.2045
vn -0.0202 0.9991 0.0370
vn 0.0063 0.9928 -0.1193
vn -0.1479 0.9792 0.1387
vn 0.0412 0.9967 0.0700
vn -0.0232 0.9940 -0.1072
vn 0.2759 0.9474 0.1619
vn 0.1368 0.9755 -0.1726
vn -0.1247 0.9905 0.0573
vn 0.0300 0.9814 -0.1895
vn -0.1656 0.9435 0.2870
vn -0.1280 0.9483 -0.2903
vn 0.0283 0.9983 0.0516
vn -0.0648 0.9834 -0.1693
vn 0.0235 0.9996 0.0143
vn 0.0433 0.9981 -0.0448
vn -0.0893 0.9938 -0.0666
vn 0.1600 0.9858 -0.0511
vn 0.1310 0.9914 0.0015
vn 0.0012 0.9984 0.0559
vn 0.0815 0.9962 0.0299
vn 0.0602 0.9917 -0.1133
vn -0.4583 0.8132 0.3586
vn 0.0018 0.9967 -0.0810
vn -0.2326 0.9664 0.1089
vn -0.0838 0.9959 0.0333
vn 0.0231 0.9986 0.0472
vn 0.0131 0.9951 0.0977
vn -0.1328 0.9854 0.1064
vn 0.1433 0.9875 -0.0662
vn -0.0197 0.9978 -0.0635
vn -0.0098 0.9959 -0.0894
vn 0.0065 0.9991 -0.0408
vn -0.0495 0.9988 -0.0052
vn 0.1691 0.9818 -0.0863
vn 0.0672 0.9976 0.0159
vn -0.2228 0.9717 -0.0780
vn -0.1472 0.9891 0.0079
vn -0.2321 0.9666 0.1088
vn -0.0848 0.9962 0.0209
vn -0.0064 0.9999 -0.0104
vn 0.1695 0.9661 -0.1948
vn 0.1058 0.9679 0.2280
vn -0.0488 0.9988 0.0073
vn 0.0238 0.9966 0.0793
vn 0.0533 0.9985 -0.0105
vn 0.0783 0.9957 0.0505
vn 0.1147 0.9931 -0.0233
vn 0.1032 0.9946 -0.0141
vn -0.0150 0.9980 -0.0620
vn 0.1418 0.9899 0.0006
vn -0.0560 0.9797 0.1927
vn 0.0280 0.9996 0.0078
vn -0.0160 0.9964 -0.0830
vn -0.0888 0.9492 0.3019
vn -0.0132 0.9998 -0.0148
vn 0.0272 0.9994 0.0234
vn -0.0416 0.9938 -0.1028
vn 0.0046 0.9931 -0.1172
vn -0.1225 0.9765 0.1773
vn 0.0104 0.9981 0.0609
vn -0.0258 0.9993 0.0289
vn -0.0283 0.9995 0.0099
vn 0.0322 0.9995 -0.0044
vn 0.0196 0.9980 0.0608
vn 0.1092 0.9802 -0.1651
vn -0.1329 0.9888 -0.0685
vn -0.0053 0.9993 -0.0370
vn -0.0079 0.9968 0.0796
vn 0.1105 0.9781 -0.1762
vn -0.2404 0.9413 0.2371
vn 0.0011 0.9990 -0.0455
vn -0.0109 0.9984 0.0551
vn -0.0023 0.9993 -0.0381
vn 0.0121 0.9948 0.1012
vn -0.1081 0.9872 0.1176
vn 0.0484 0.9986 0.0196
vn 0.0486 0.9988 0.0113
vn 0.0052 0.9991 0.0410
vn 0.0192 0.9939 -0.1089
vn -0.1606 0.9870 0.0040
vn 0.0159 0.9990 0.0420
vn 0.0150 0.9989 0.0439
vn 0.0955 0.9820 -0.1631
vn -0.0883 0.9885 0.1230
vn 0.0173 0.9834 -0.1807
vn 0.0073 0.9783 0.2069
vn 0.0715 0.9963 0.0481
vn 0.0255 0.9884 -0.1498
vn -0.0312 0.9957 0.0868
vn -0.0579 0.9961 -0.0666
vn 0.0378 0.9894 -0.1405
vn 0.2089 0.9765 0.0536
vn 0.1157 0.9877 -0.1052
vn 0.0310 0.9978 0.0581
vn -0.1029 0.9890 0.1061
vn 0.0255 0.9988 -0.0412
vn 0.0259 0.9990 -0.0356
vn 0.0102 0.9997 -0.0208
vn -0.0240 0.9964 0.0810
vn -0.0170 0.9988 -0.0457
vn 0.1024 0.9930 -0.0582
vn 0.0423 0.9977 0.0533
vn 0.0270 0.9973 0.0690
vn 0.0402 0.9992 -0.0088
vn -0.0052 0.9968 -0.0795
vn -0.1074 0.9858 0.1291
vn 0.2187 0.9706 0.1007
vn 0.0218 0.9976 -0.0663
vn -0.0170 0.9997 0.0183
vn -0.0281 0.9987 -0.0421
vn -0.0240 0.9886 -0.1484
vn -0.2506 0.9675 -0.0348
vn -0.2825 0.9589 0.0278
vn 0.0702 0.9961 -0.0532
vn -0.0283 0.9993 0.0263
vn -0.0069 0.9998 -0.0207
vn -0.2265 0.9489 0.2197
vn 0.0670 0.9895 -0.1281
vn -0.0140 0.9900 0.1405
vn -0.0709 0.9915 0.1092
vn -0.0166 0.9914 -0.1301
vn 0.0023 0.9989 0.0461
vn 0.0620 0.9924 -0.1063
vn -0.0053 0.9985 -0.0540
vn 0.0712 0.9958 -0.0583
vn 0.0363 0.9985 -0.0408
vn -0.0400 0.9979 0.0517
vn -0.0255 0.9861 0.1642
vn 0.0442 0.9990 0.0098
vn 0.3400 0.9375 0.0744
vn 0.3436 0.9290 0.1377
vn 0.0093 0.9993 0.0354
vn 0.0662 0.9974 -0.0284
vn 0.0493 0.9965 -0.0669
vn 0.0815 0.9967 -0.0027
vn 0.0815 0.9907 -0.1086
vn 0.0342 0.9987 -0.0382
vn 0.0175 0.9982 -0.0571
vn 0.0079 0.9995 -0.0303
vn 0.0448 0.9961 -0.0756
vn 0.0398 0.9992 0.0047
vn 0.0912 0.9957 0.0137
vn 0.0568 0.9983 0.0155
vn 0.1016 0.9924 -0.0697
vn -0.1612 0.9868 0.0154
vn 0.0478 0.9959 -0.0772
vn 0.0103 0.9995 -0.0289
vn 0.0566 0.9977 0.0363
vn 0.0339 0.9987 -0.0382
vn -0.1294 0.9880 0.0840
vn -0.1445 0.9895 0.0024
vn -0.1071 0.9942 0.0053
vn -0.1060 0.9944 -0.0036
vn 0.0108 0.9997 0.0234
vn -0.0115 0.9995 -0.0311
vn 0.0855 0.9962 -0.0172
vn 0.0683 0.9958 -0.0608
vn 0.0565 0.9862 0.1555
vn 0.0043 0.9980 -0.0627
vn -0.1471 0.9854 0.0851
vn -0.1422 0.9859 0.0880
vn -0.0766 0.9971 -0.0021
usemtl Default_OBJ
s off
f 2/1/1 3/2/1 4/3/1
f 4/3/2 6/4/2 5/5/2
f 6/4/3 7/6/3 5/5/3
f 5/5/4 7/6/4 8/7/4
f 8/7/5 9/8/5 10/9/5
f 9/8/6 11/10/6 10/9/6
f 11/10/7 12/11/7 10/9/7
f 10/9/8 12/11/8 13/12/8
f 13/12/9 12/11/9 14/13/9
f 12/11/10 15/14/10 14/13/10
f 16/15/11 3/2/11 2/1/11
f 17/16/12 6/4/12 4/3/12
f 6/4/13 18/17/13 7/6/13
f 8/7/14 7/6/14 9/8/14
f 12/11/15 20/18/15 15/14/15
f 1/19/16 21/20/16 2/1/16
f 21/20/17 16/15/17 2/1/17
f 3/2/18 17/16/18 4/3/18
f 22/21/19 18/17/19 6/4/19
f 24/22/20 19/23/20 11/10/20
f 11/10/21 19/23/21 12/11/21
f 12/11/22 19/23/22 20/18/22
f 18/17/23 9/8/23 7/6/23
f 23/24/24 24/22/24 9/8/24
f 9/8/25 24/22/25 11/10/25
f 17/16/26 22/21/26 6/4/26
f 18/17/27 23/24/27 9/8/27
f 24/22/28 26/25/28 19/23/28
f 26/25/29 25/26/29 19/23/29
f 25/26/30 27/27/30 19/23/30
f 19/23/31 27/27/31 20/18/31
f 20/18/32 28/28/32 15/14/32
f 21/20/33 29/29/33 16/15/33
f 29/29/34 30/30/34 16/15/34
f 16/15/35 30/30/35 3/2/35
f 3/2/36 31/31/36 17/16/36
f 31/31/37 22/21/37 17/16/37
f 22/21/38 32/32/38 18/17/38
f 32/32/39 33/33/39 18/17/39
f 18/17/40 33/33/40 23/24/40
f 23/24/41 34/34/41 24/22/41
f 34/34/42 26/25/42 24/22/42
f 35/35/43 25/26/43 26/25/43
f 31/31/44 36/36/44 22/21/44
f 22/21/45 36/36/45 32/32/45
f 36/36/46 33/33/46 32/32/46
f 33/33/47 37/37/47 23/24/47
f 23/24/48 37/37/48 34/34/48
f 34/34/49 38/38/49 26/25/49
f 35/35/50 39/39/50 25/26/50
f 39/39/51 27/27/51 25/26/51
f 27/27/52 28/28/52 20/18/52
f 21/20/53 40/40/53 29/29/53
f 29/29/54 40/40/54 30/30/54
f 30/30/55 41/41/55 3/2/55
f 3/2/56 41/41/56 31/31/56
f 31/31/57 42/42/57 36/36/57
f 36/36/58 43/43/58 33/33/58
f 38/38/59 35/35/59 26/25/59
f 39/39/60 44/44/60 27/27/60
f 41/41/61 42/42/61 31/31/61
f 42/42/62 45/45/62 36/36/62
f 45/45/63 43/43/63 36/36/63
f 33/33/64 46/46/64 37/37/64
f 37/37/65 46/46/65 34/34/65
f 46/46/66 47/47/66 34/34/66
f 38/38/67 48/48/67 35/35/67
f 48/48/68 49/49/68 35/35/68
f 35/35/69 49/49/69 39/39/69
f 44/44/70 50/50/70 27/27/70
f 27/27/71 50/50/71 28/28/71
f 40/40/72 51/51/72 30/30/72
f 30/30/73 51/51/73 41/41/73
f 41/41/74 55/52/74 42/42/74
f 42/42/75 52/53/75 45/45/75
f 45/45/76 52/53/76 43/43/76
f 52/53/77 56/54/77 43/43/77
f 33/33/78 43/43/78 46/46/78
f 46/46/79 53/55/79 47/47/79
f 34/34/80 47/47/80 38/38/80
f 47/47/81 48/48/81 38/38/81
f 40/40/82 54/56/82 51/51/82
f 51/51/83 55/52/83 41/41/83
f 46/46/84 57/57/84 53/55/84
f 47/47/85 62/58/85 48/48/85
f 48/48/86 58/59/86 49/49/86
f 49/49/87 58/59/87 39/39/87
f 39/39/88 58/59/88 44/44/88
f 54/56/89 55/52/89 51/51/89
f 55/52/90 59/60/90 42/42/90
f 42/42/91 59/60/91 52/53/91
f 52/53/92 60/61/92 56/54/92
f 56/54/93 61/62/93 43/43/93
f 43/43/94 61/62/94 46/46/94
f 53/55/95 57/57/95 47/47/95
f 57/57/96 62/58/96 47/47/96
f 58/59/97 50/50/97 44/44/97
f 50/50/98 65/63/98 28/28/98
f 59/60/99 64/64/99 52/53/99
f 52/53/100 64/64/100 60/61/100
f 61/62/101 57/57/101 46/46/101
f 48/48/102 62/58/102 58/59/102
f 54/56/103 66/65/103 55/52/103
f 66/65/104 63/66/104 55/52/104
f 55/52/105 63/66/105 59/60/105
f 59/60/106 63/66/106 64/64/106
f 60/61/107 64/64/107 56/54/107
f 64/64/108 61/62/108 56/54/108
f 57/57/109 68/67/109 62/58/109
f 62/58/110 68/67/110 58/59/110
f 58/59/111 68/67/111 50/50/111
f 68/67/112 65/63/112 50/50/112
f 63/66/113 69/68/113 64/64/113
f 69/68/114 70/69/114 64/64/114
f 70/69/115 71/70/115 64/64/115
f 64/64/116 71/70/116 61/62/116
f 61/62/117 72/71/117 57/57/117
f 57/57/118 72/71/118 67/72/118
f 67/72/119 68/67/119 57/57/119
f 68/67/120 74/73/120 65/63/120
f 74/73/121 75/74/121 65/63/121
f 65/63/122 77/75/122 28/28/122
f 73/76/123 74/73/123 68/67/123
f 75/74/124 78/77/124 65/63/124
f 65/63/125 76/78/125 77/75/125
f 66/65/126 69/68/126 63/66/126
f 70/69/127 79/79/127 71/70/127
f 71/70/128 80/80/128 61/62/128
f 65/63/129 78/77/129 76/78/129
f 66/65/130 82/81/130 69/68/130
f 69/68/131 83/82/131 70/69/131
f 70/69/132 83/82/132 79/79/132
f 79/79/133 80/80/133 71/70/133
f 80/80/134 84/83/134 61/62/134
f 61/62/135 84/83/135 72/71/135
f 72/71/136 81/84/136 67/72/136
f 67/72/137 81/84/137 68/67/137
f 68/67/138 85/85/138 73/76/138
f 74/73/139 86/86/139 75/74/139
f 72/71/140 84/83/140 81/84/140
f 81/84/141 87/87/141 68/67/141
f 68/67/142 87/87/142 85/85/142
f 83/82/143 88/88/143 79/79/143
f 88/88/144 89/89/144 79/79/144
f 89/89/145 80/80/145 79/79/145
f 84/83/146 90/90/146 81/84/146
f 90/90/147 87/87/147 81/84/147
f 73/76/148 86/86/148 74/73/148
f 78/77/149 91/91/149 76/78/149
f 76/78/150 91/91/150 77/75/150
f 91/91/151 92/92/151 77/75/151
f 69/68/152 93/93/152 83/82/152
f 93/93/153 88/88/153 83/82/153
f 89/89/154 94/94/154 80/80/154
f 80/80/155 94/94/155 84/83/155
f 85/85/156 87/87/156 73/76/156
f 97/95/157 86/86/157 73/76/157
f 86/86/158 95/96/158 75/74/158
f 75/74/159 95/96/159 78/77/159
f 78/77/160 95/96/160 91/91/160
f 82/81/161 93/93/161 69/68/161
f 90/90/162 96/97/162 87/87/162
f 87/87/163 97/95/163 73/76/163
f 82/81/164 98/98/164 93/93/164
f 93/93/165 99/99/165 88/88/165
f 88/88/166 99/99/166 89/89/166
f 89/89/167 99/99/167 94/94/167
f 94/94/168 100/100/168 84/83/168
f 100/100/169 101/101/169 84/83/169
f 84/83/170 101/101/170 90/90/170
f 101/101/171 96/97/171 90/90/171
f 96/97/172 102/102/172 87/87/172
f 87/87/173 102/102/173 97/95/173
f 97/95/174 95/96/174 86/86/174
f 95/96/175 104/103/175 91/91/175
f 104/103/176 92/92/176 91/91/176
f 92/92/177 105/104/177 77/75/177
f 93/93/178 98/98/178 99/99/178
f 99/99/179 100/100/179 94/94/179
f 96/97/180 106/105/180 102/102/180
f 102/102/181 110/106/181 97/95/181
f 110/106/182 107/107/182 97/95/182
f 107/107/183 95/96/183 97/95/183
f 95/96/184 103/108/184 104/103/184
f 98/98/185 108/109/185 99/99/185
f 108/109/186 100/100/186 99/99/186
f 100/100/187 115/110/187 101/101/187
f 115/110/188 109/111/188 101/101/188
f 109/111/189 96/97/189 101/101/189
f 107/107/190 103/108/190 95/96/190
f 111/112/191 104/103/191 103/108/191
f 112/113/192 113/114/192 104/103/192
f 104/103/193 113/114/193 92/92/193
f 92/92/194 113/114/194 105/104/194
f 114/115/195 108/109/195 98/98/195
f 107/107/196 111/112/196 103/108/196
f 111/112/197 112/113/197 104/103/197
f 108/109/198 115/110/198 100/100/198
f 96/97/199 122/116/199 106/105/199
f 122/116/200 116/117/200 106/105/200
f 106/105/201 116/117/201 102/102/201
f 102/102/202 116/117/202 110/106/202
f 112/113/203 118/118/203 113/114/203
f 113/114/204 118/118/204 105/104/204
f 114/115/205 119/119/205 108/109/205
f 120/120/206 122/116/206 109/111/206
f 109/111/207 122/116/207 96/97/207
f 116/117/208 123/121/208 110/106/208
f 107/107/209 121/122/209 111/112/209
f 121/122/210 117/123/210 111/112/210
f 111/112/211 117/123/211 112/113/211
f 117/123/212 118/118/212 112/113/212
f 108/109/213 119/119/213 115/110/213
f 115/110/214 120/120/214 109/111/214
f 122/116/215 123/121/215 116/117/215
f 110/106/216 124/124/216 107/107/216
f 124/124/217 121/122/217 107/107/217
f 117/123/218 127/125/218 118/118/218
f 119/119/219 125/126/219 115/110/219
f 125/126/220 120/120/220 115/110/220
f 123/121/221 124/124/221 110/106/221
f 121/122/222 126/127/222 117/123/222
f 126/127/223 127/125/223 117/123/223
f 127/125/224 105/104/224 118/118/224
f 120/120/225 130/128/225 122/116/225
f 122/116/226 130/128/226 123/121/226
f 124/124/227 126/127/227 121/122/227
f 131/129/228 105/104/228 127/125/228
f 114/115/229 125/126/229 119/119/229
f 125/126/230 129/130/230 120/120/230
f 129/130/231 130/128/231 120/120/231
f 130/128/232 124/124/232 123/121/232
f 124/124/233 131/129/233 126/127/233
f 126/127/234 131/129/234 127/125/234
f 131/129/235 128/131/235 105/104/235
