# Blender v2.80 (sub 75) OBJ File: ''
# www.blender.org
mtllib TerrainIntroLowPoly.mtl
o TerrainIntro.001
v 47.873070 17.086620 -49.588493
v 47.745358 16.043743 -35.694500
v 38.272854 19.658119 -34.569008
v 47.701942 1.917304 -9.878924
v 47.703896 -0.186869 -3.347343
v 47.748806 0.552801 6.465667
v 38.697929 2.628297 10.429732
v 47.816551 16.913704 35.293938
v 38.155407 18.116104 32.993744
v 40.673134 21.317060 41.799961
v 47.807945 18.731964 50.498016
v 38.705421 0.277707 0.174323
v 38.150616 20.091433 -49.508018
v 34.764977 21.279478 50.496208
v 33.480045 21.929529 -41.179092
v 28.087582 8.943381 17.751156
v 26.255886 11.301005 -17.044537
v 30.178589 20.339972 39.490620
v 24.015377 19.319983 -49.561142
v 17.941072 7.932343 8.780675
v 24.744089 19.761423 45.147377
v 15.682959 13.682153 -24.089224
v 20.297207 12.523232 25.625084
v 14.028579 10.928337 -11.292431
v 12.849411 9.194585 1.691490
v 21.557039 19.483072 -42.838287
v 20.929682 16.774427 50.500465
v 12.630953 11.585203 33.144169
v 11.554493 9.809847 16.036705
v 8.133401 11.763596 -33.874565
v 0.329299 4.454495 50.499199
v -1.857353 12.013003 2.346261
v 5.536382 8.912118 27.957561
v -1.297280 4.505105 -49.536224
v 3.278297 10.278530 -24.545856
v -3.982562 8.992364 17.239155
v -11.976650 10.611158 -5.698326
v -14.997009 0.505890 38.295166
v -17.579771 0.567133 -37.312057
v -16.353794 0.242331 -49.520248
v -14.908640 10.437678 2.763479
v -16.288137 0.013862 50.482361
v -25.176613 2.792337 22.611691
v -29.454309 1.225931 -23.692039
v -41.168743 -0.269893 25.093065
v -40.688953 0.064295 -26.371719
v -36.924446 1.950468 8.565015
v -52.267635 -0.043542 -49.517895
v -36.639210 2.020144 -7.474141
v -52.268047 0.074406 50.482033
vt 0.136234 0.000243
vt 0.160391 0.080450
vt 0.368200 0.012270
vt 0.555537 0.000277
vt 0.601612 0.085303
vt 0.852240 0.001450
vt 0.912832 0.071237
vt 0.999932 0.000054
vt 0.000449 0.000010
vt 0.460944 0.001330
vt 0.513197 0.103616
vt 0.813116 0.099569
vt 0.984654 0.113285
vt -0.000037 0.096736
vt 0.084616 0.146123
vt 0.680850 0.193033
vt 0.886311 0.177095
vt 0.321269 0.219953
vt 0.000306 0.232418
vt 0.602159 0.282675
vt 0.941606 0.227975
vt 0.253102 0.320161
vt 0.751721 0.277181
vt 0.370032 0.333161
vt 0.070066 0.263299
vt 1.000053 0.265630
vt 0.511757 0.344986
vt 0.825587 0.350846
vt 0.657559 0.366660
vt 0.997436 0.481014
vt 0.155691 0.394888
vt 0.513444 0.496079
vt 0.773996 0.429146
vt 0.000727 0.480287
vt 0.252781 0.446931
vt 0.679599 0.535933
vt 0.429608 0.603940
vt 0.129854 0.632110
vt 0.880948 0.628039
vt 0.000635 0.642033
vt 0.527997 0.636763
vt 0.999019 0.640991
vt 0.720228 0.720982
vt 0.264397 0.770623
vt 0.719437 0.854438
vt 0.000000 1.000000
vt 0.253634 0.855007
vt 0.417583 0.821343
vt 0.575345 0.852549
vt 1.000000 1.000000
vn 0.3647 0.8166 0.4474
vn -0.0167 0.8696 -0.4935
vn 0.4502 0.8866 -0.1058
vn 0.3631 0.9289 0.0731
vn 0.0220 0.9969 -0.0752
vn 0.2304 0.8049 -0.5469
vn 0.2038 0.9000 -0.3854
vn 0.1247 0.9671 -0.2216
vn 0.1900 0.9727 0.1333
vn 0.2946 0.9545 -0.0454
vn 0.3523 0.9336 0.0654
vn 0.1668 0.9385 0.3023
vn 0.1015 0.8213 -0.5613
vn -0.0132 0.9410 -0.3383
vn 0.1879 0.8302 0.5248
vn -0.0814 0.9954 -0.0510
vn -0.0520 0.9687 -0.2429
vn 0.2578 0.9418 -0.2157
vn -0.1349 0.9905 -0.0283
vn -0.0728 0.9258 0.3709
vn -0.0781 0.8762 -0.4756
vn -0.1023 0.8959 -0.4322
vn 0.2057 0.8459 0.4921
vn 0.2281 0.9077 0.3522
vn 0.2569 0.8841 -0.3903
vn -0.1878 0.9779 -0.0924
vn -0.2256 0.9484 0.2228
vn -0.0582 0.9160 0.3969
vn -0.2957 0.9082 0.2961
vn 0.3302 0.9312 0.1543
vn -0.3574 0.8992 -0.2522
vn -0.3577 0.8993 -0.2516
vn 0.3221 0.9446 -0.0631
vn 0.1528 0.9478 -0.2797
vn -0.0131 0.9652 -0.2612
vn 0.0733 0.9730 0.2189
vn -0.5100 0.8528 0.1124
vn -0.4178 0.8967 0.1465
vn 0.2636 0.9645 -0.0176
vn 0.1871 0.9820 -0.0252
vn -0.2449 0.9682 -0.0507
vn -0.2564 0.9561 -0.1421
vn -0.5361 0.8435 -0.0335
vn -0.4949 0.8453 -0.2015
vn -0.5322 0.8437 -0.0705
vn -0.2666 0.9488 0.1697
vn 0.1925 0.9702 0.1470
vn -0.2651 0.9641 0.0155
vn -0.4058 0.9099 0.0862
vn 0.0154 0.9980 -0.0614
vn 0.0573 0.9930 0.1037
vn -0.1835 0.9682 0.1702
vn -0.4820 0.8689 -0.1125
vn -0.0753 0.9941 -0.0785
vn -0.3390 0.9284 -0.1524
vn -0.3289 0.9380 0.1095
vn -0.2620 0.9348 0.2397
vn -0.2721 0.9608 -0.0529
vn -0.2821 0.9276 -0.2447
vn -0.1205 0.9925 -0.0214
vn -0.1121 0.9769 0.1821
vn -0.2582 0.9660 0.0117
vn -0.2063 0.9402 0.2710
vn -0.2405 0.9366 -0.2549
vn -0.2117 0.9438 0.2540
vn -0.1474 0.9606 0.2357
vn -0.0474 0.9983 0.0353
vn -0.0080 0.9996 -0.0274
vn -0.0753 0.9907 -0.1136
vn -0.3115 0.9323 -0.1837
vn -0.3216 0.9424 -0.0921
vn -0.0194 0.9998 0.0050
vn -0.3602 0.9329 -0.0024
vn -0.3061 0.9307 0.2002
vn -0.1743 0.9808 0.0870
vn 0.0017 0.9999 -0.0128
vn -0.0824 0.9930 -0.0851
vn -0.4214 0.9069 -0.0036
vn -0.4590 0.8884 0.0015
vn -0.0070 1.0000 -0.0012
vn 0.0468 0.9989 0.0069
usemtl Default_OBJ.001
s off
f 2/1/1 3/2/1 4/3/1
f 6/4/2 7/5/2 8/6/2
f 8/6/3 10/7/3 11/8/3
f 1/9/4 3/2/4 2/1/4
f 5/10/5 12/11/5 6/4/5
f 7/5/6 9/12/6 8/6/6
f 9/12/7 10/7/7 8/6/7
f 12/11/8 7/5/8 6/4/8
f 10/7/9 14/13/9 11/8/9
f 13/14/10 15/15/10 1/9/10
f 1/9/11 15/15/11 3/2/11
f 4/3/12 12/11/12 5/10/12
f 7/5/13 16/16/13 9/12/13
f 9/12/14 18/17/14 10/7/14
f 3/2/15 17/18/15 4/3/15
f 10/7/16 18/17/16 14/13/16
f 13/14/17 19/19/17 15/15/17
f 12/11/18 20/20/18 7/5/18
f 18/17/19 21/21/19 14/13/19
f 15/15/20 22/22/20 3/2/20
f 16/16/21 23/23/21 9/12/21
f 9/12/22 23/23/22 18/17/22
f 17/18/23 24/24/23 4/3/23
f 24/24/24 12/11/24 4/3/24
f 20/20/25 16/16/25 7/5/25
f 19/19/26 26/25/26 15/15/26
f 15/15/27 26/25/27 22/22/27
f 3/2/28 22/22/28 17/18/28
f 21/21/29 27/26/29 14/13/29
f 24/24/30 25/27/30 12/11/30
f 23/23/31 28/28/31 18/17/31
f 28/28/32 21/21/32 18/17/32
f 25/27/33 20/20/33 12/11/33
f 16/16/34 20/20/34 23/23/34
f 20/20/35 29/29/35 23/23/35
f 22/22/36 24/24/36 17/18/36
f 31/30/37 27/26/37 21/21/37
f 26/25/38 30/31/38 22/22/38
f 25/27/39 29/29/39 20/20/39
f 32/32/40 29/29/40 25/27/40
f 29/29/41 33/33/41 23/23/41
f 23/23/42 33/33/42 28/28/42
f 28/28/43 31/30/43 21/21/43
f 19/19/44 34/34/44 26/25/44
f 26/25/45 34/34/45 30/31/45
f 22/22/46 35/35/46 24/24/46
f 24/24/47 32/32/47 25/27/47
f 30/31/48 35/35/48 22/22/48
f 28/28/49 33/33/49 31/30/49
f 24/24/50 35/35/50 32/32/50
f 29/29/51 32/32/51 33/33/51
f 32/32/52 36/36/52 33/33/52
f 34/34/53 35/35/53 30/31/53
f 35/35/54 37/37/54 32/32/54
f 34/34/55 39/38/55 35/35/55
f 33/33/56 38/39/56 31/30/56
f 36/36/57 38/39/57 33/33/57
f 34/34/58 40/40/58 39/38/58
f 35/35/59 39/38/59 37/37/59
f 37/37/60 41/41/60 32/32/60
f 41/41/61 36/36/61 32/32/61
f 38/39/62 42/42/62 31/30/62
f 36/36/63 43/43/63 38/39/63
f 39/38/64 44/44/64 37/37/64
f 41/41/65 43/43/65 36/36/65
f 43/43/66 45/45/66 38/39/66
f 38/39/67 45/45/67 42/42/67
f 40/40/68 48/46/68 39/38/68
f 39/38/69 46/47/69 44/44/69
f 44/44/70 49/48/70 37/37/70
f 37/37/71 49/48/71 41/41/71
f 39/38/72 48/46/72 46/47/72
f 49/48/73 47/49/73 41/41/73
f 41/41/74 47/49/74 43/43/74
f 43/43/75 47/49/75 45/45/75
f 45/45/76 50/50/76 42/42/76
f 44/44/77 46/47/77 49/48/77
f 46/47/78 47/49/78 49/48/78
f 46/47/79 45/45/79 47/49/79
f 48/46/80 50/50/80 46/47/80
f 46/47/81 50/50/81 45/45/81
